<?xml version="1.0" encoding="UTF-8" standalone="no"?>
<!DOCTYPE svg PUBLIC "-//W3C//DTD SVG 1.1//EN" "http://www.w3.org/Graphics/SVG/1.1/DTD/svg11.dtd">
<svg width="100%" height="100%" viewBox="0 0 3072 3072" version="1.1" xmlns="http://www.w3.org/2000/svg" xmlns:xlink="http://www.w3.org/1999/xlink" xml:space="preserve" xmlns:serif="http://www.serif.com/" style="fill-rule:evenodd;clip-rule:evenodd;stroke-linejoin:round;stroke-miterlimit:2;">
    <g transform="matrix(1,0,0,1,-15161.156262,0)">
        <g id="virgil_red_icon" transform="matrix(1,0,0,1,3593.156262,0)">
            <rect x="11568" y="0" width="3072" height="3072" style="fill:none;"/>
            <g id="virgil_owl_bw.png" transform="matrix(3.004883,0,0,3.004883,11573,-22)">
                <path d="M290.228,192.697C288.242,190.03 288.258,190.045 288.083,189.817C263.933,158.342 263.137,133.428 298.58,140.029C313.482,142.805 311.472,146.702 319.944,165.294C331.102,189.781 342.382,172.185 355.542,160.548C457.924,70.013 599.686,95.982 667.279,156.746C679.482,167.716 692.101,193.741 709.817,159.657C720.214,139.655 723.177,139.036 749.554,141.126C769.609,142.715 737.146,191.609 736.445,198.495C736.365,199.28 736.183,201.072 732.718,207.622C730.998,210.874 731.79,211.078 730.682,214.561C726.91,226.411 729.399,226.567 730.041,234.547C730.866,244.807 731.984,244.615 731.988,245.506C732.02,252.359 735.189,261.021 737.11,267.604C752.161,319.208 743.576,418.278 734.731,454.563C731.014,469.809 706.709,611.484 564.822,708.961C562.231,710.741 533.227,730.668 532.317,731.037C531.186,731.495 526.39,733.441 518.362,737.205C489.263,750.849 489.07,750.353 486.634,751.715C472.442,759.645 415.6,776.919 410.424,778.007L408.422,778.27C384.593,785.75 346.259,792.374 342.521,792.087C330.983,791.201 324.245,794.045 307.504,794.564C299.247,794.82 299.328,794.387 292.535,793.304C281.303,791.513 283.161,784.978 283.129,784.496C282.679,774.749 283.543,747.7 283.645,744.502C283.855,737.953 283.214,738.052 283.356,731.499C286.153,602.412 276.874,302.556 290.409,264.462C297.94,243.264 300.504,244.455 310.445,221.48C311.833,217.146 311.07,216.573 305.605,210.409C291.261,194.23 291.518,194.059 290.228,192.697ZM630.452,201.07C643.398,199.679 649.923,199.099 650.077,196.486C650.165,194.992 643.516,189.573 642.874,189.05C610.619,162.758 589.973,153.494 554.406,144.942C464.433,123.308 389.383,182.787 377.554,194.554C369.606,202.461 385.06,199.651 395.505,200.436C468.899,205.95 497.248,247.449 500.942,252.141C515.619,270.784 518.987,255.963 533.339,242.333C567.828,209.577 601.274,204.689 630.452,201.07ZM324.084,611.525C325.33,626.213 321.992,634.355 336.396,631.025C365.362,624.328 451.264,577.177 483.186,543.219C490.174,535.785 477.55,536.268 445.596,528.079C408.682,518.619 413.651,540.527 345.397,575.31C326.403,584.989 323.186,586.696 324.084,611.525ZM655.497,237.071C633.883,238.338 525.649,238.281 533.856,370.474C535.146,391.256 534.294,396.797 518.519,395.308C500.718,393.628 495.477,395.455 494.882,385.468C491.818,334.005 502.311,289.728 441.349,254.759C406.973,235.04 348.979,231.751 339.686,249.597C301.589,322.757 334.28,468.639 478.566,495.148C552.441,508.721 654.077,478.355 689.433,381.478C711.525,320.941 702.055,247.838 675.528,239.413C668.682,237.239 662.248,237.055 655.497,237.071ZM324.092,516.504C324.301,530.46 322.248,539.834 333.383,536.151C335.813,535.348 379.802,511.922 381.092,504.441C382.735,494.92 353.991,481.902 333.907,455.186C324.87,443.164 323.791,453.699 323.777,454.511C323.542,468.247 324.012,513.131 324.092,516.504ZM324.093,707.495C324.085,707.917 324.12,745.919 327.392,747.675C334.215,751.34 406.625,743.58 467.406,717.262C634.313,644.99 677.43,514.647 692.639,465.55C698.656,446.126 681.981,471.267 660.18,488.089C625.495,514.851 590.553,524.897 582.604,527.792C568.877,532.791 549.507,534.274 544.705,538.727C518.324,563.192 482.045,610.178 385.652,654.809C350.23,671.21 330.012,670.891 327.429,678.474C324.347,687.523 324.285,699.956 324.093,707.495Z" style="fill:rgb(230,84,63);"/>
                <path d="M628.553,289.083C631.876,289.621 656.773,293.652 655.396,321.495C654.335,342.949 623.84,365.602 599.848,341.159C578.042,318.943 591.681,285.21 628.553,289.083Z" style="fill:rgb(230,84,63);"/>
                <path d="M407.499,349.883C344.05,347.461 377.31,261.605 427.296,295.815C435.651,301.533 441.838,321.565 437.605,332.543C430.529,350.894 408.124,349.828 407.499,349.883Z" style="fill:rgb(230,84,63);"/>
            </g>
        </g>
    </g>
</svg>
