<?xml version="1.0" encoding="UTF-8" standalone="no"?><!DOCTYPE svg PUBLIC "-//W3C//DTD SVG 1.1//EN" "http://www.w3.org/Graphics/SVG/1.1/DTD/svg11.dtd"><svg width="100%" height="100%" viewBox="0 0 1300 1300" version="1.1" xmlns="http://www.w3.org/2000/svg" xmlns:xlink="http://www.w3.org/1999/xlink" xml:space="preserve" xmlns:serif="http://www.serif.com/" style="fill-rule:evenodd;clip-rule:evenodd;stroke-linejoin:round;stroke-miterlimit:2;"><rect id="virgil_red_icon" x="0" y="0" width="1300" height="1300" style="fill:none;"/><g id="virgil_owl_bw.png"><path d="M327.815,288.807c-2.9,-3.895 -2.877,-3.873 -3.132,-4.206c-35.271,-45.969 -36.433,-82.355 15.33,-72.714c21.764,4.054 18.829,9.746 31.202,36.899c16.296,35.762 32.77,10.064 51.99,-6.932c149.528,-132.224 356.569,-94.298 455.288,-5.552c17.821,16.021 36.251,54.03 62.126,4.251c15.184,-29.212 19.511,-30.116 58.034,-27.064c29.29,2.321 -18.121,73.73 -19.145,83.786c-0.117,1.146 -0.383,3.763 -5.443,13.33c-2.512,4.75 -1.355,5.048 -2.974,10.134c-5.509,17.307 -1.873,17.535 -0.936,29.189c1.205,14.985 2.838,14.705 2.844,16.006c0.047,10.009 4.675,22.659 7.479,32.274c21.983,75.367 9.445,220.058 -3.474,273.052c-5.428,22.265 -40.925,229.18 -248.149,371.544c-3.784,2.6 -46.145,31.702 -47.473,32.241c-1.652,0.67 -8.657,3.512 -20.381,9.009c-42.498,19.927 -42.781,19.203 -46.339,21.192c-20.726,11.582 -103.744,36.811 -111.303,38.399l-2.925,0.383c-34.802,10.925 -90.788,20.599 -96.246,20.18c-16.852,-1.293 -26.693,2.86 -51.142,3.617c-12.059,0.373 -11.941,-0.259 -21.862,-1.84c-16.405,-2.615 -13.691,-12.159 -13.737,-12.863c-0.659,-14.236 0.604,-53.74 0.754,-58.411c0.306,-9.564 -0.63,-9.421 -0.423,-18.991c4.085,-188.53 -9.467,-626.464 10.301,-682.101c10.999,-30.958 14.744,-29.219 29.263,-62.773c2.027,-6.331 0.913,-7.167 -7.069,-16.169c-20.949,-23.629 -20.574,-23.879 -22.459,-25.869Zm496.892,12.229c18.907,-2.031 28.437,-2.878 28.661,-6.695c0.128,-2.181 -9.582,-10.096 -10.52,-10.86c-47.108,-38.398 -77.261,-51.928 -129.205,-64.418c-131.405,-31.596 -241.013,55.271 -258.29,72.458c-11.608,11.548 10.963,7.444 26.217,8.59c107.192,8.053 148.595,68.662 153.99,75.515c21.435,27.228 26.354,5.581 47.315,-14.325c50.371,-47.839 99.218,-54.977 141.832,-60.263Zm-447.445,599.464c1.819,21.451 -3.056,33.343 17.981,28.479c42.305,-9.781 167.763,-78.644 214.385,-128.24c10.206,-10.857 -8.231,-10.152 -54.9,-22.112c-53.912,-13.816 -46.656,18.181 -146.34,68.981c-27.74,14.137 -32.439,16.629 -31.126,52.892Zm484.024,-546.885c-31.567,1.85 -189.642,1.768 -177.655,194.833c1.884,30.353 0.639,38.445 -22.4,36.27c-25.998,-2.454 -33.652,0.216 -34.521,-14.37c-4.475,-75.161 10.849,-139.828 -78.184,-190.899c-50.206,-28.799 -134.906,-33.603 -148.478,-7.539c-55.64,106.85 -7.895,319.907 202.832,358.624c107.894,19.823 256.332,-24.526 307.968,-166.014c32.266,-88.412 18.435,-195.179 -20.308,-207.483c-9.998,-3.175 -19.396,-3.443 -29.254,-3.421Zm-484.012,408.108c0.305,20.382 -2.693,34.072 13.569,28.694c3.549,-1.174 67.794,-35.386 69.679,-46.312c2.399,-13.906 -39.581,-32.918 -68.913,-71.937c-13.199,-17.558 -14.774,-2.171 -14.795,-0.985c-0.344,20.06 0.343,85.613 0.46,90.54Zm0.002,278.939c-0.012,0.617 0.04,56.117 4.818,58.683c9.965,5.352 115.72,-5.981 204.489,-44.419c243.765,-105.551 306.736,-295.917 328.949,-367.622c8.787,-28.367 -15.566,8.35 -47.406,32.918c-50.656,39.086 -101.688,53.757 -113.298,57.985c-20.048,7.302 -48.338,9.467 -55.351,15.971c-38.528,35.731 -91.513,104.353 -232.293,169.536c-51.733,23.953 -81.262,23.487 -85.034,34.562c-4.502,13.216 -4.593,31.374 -4.872,42.385Z" style="fill:#e6543f;"/><path d="M821.933,429.577c4.854,0.786 41.215,6.673 39.204,47.338c-1.55,31.334 -46.086,64.417 -81.126,28.719c-31.848,-32.446 -11.928,-81.712 41.922,-76.057Z" style="fill:#e6543f;"/><path d="M499.087,518.374c-92.665,-3.536 -44.091,-128.928 28.913,-78.965c12.203,8.351 21.239,37.609 15.057,53.641c-10.335,26.802 -43.056,25.245 -43.97,25.325Z" style="fill:#e6543f;"/></g></svg>