<?xml version="1.0" encoding="UTF-8" standalone="no"?><!DOCTYPE svg PUBLIC "-//W3C//DTD SVG 1.1//EN" "http://www.w3.org/Graphics/SVG/1.1/DTD/svg11.dtd"><svg width="100%" height="100%" viewBox="0 0 1024 1024" version="1.1" xmlns="http://www.w3.org/2000/svg" xmlns:xlink="http://www.w3.org/1999/xlink" xml:space="preserve" xmlns:serif="http://www.serif.com/" style="fill-rule:evenodd;clip-rule:evenodd;stroke-linejoin:round;stroke-miterlimit:2;"><rect id="virgil_book" x="0" y="0" width="1024" height="1024" style="fill:none;"/><g id="virgil_book_bw.png"><path d="M634.318,199.298c7.09,-0.53 7.039,-0.204 13.967,-1.797c2.486,-0.571 2.455,0.539 18.077,0.657c19.483,0.148 19.363,-0.654 21.04,-0.505c12.06,1.076 12.015,-0.602 24.019,0.157c83.085,5.257 162.17,-3.742 176.253,4.924c5.131,3.158 -2.472,59.792 5.434,71.754c4.079,6.172 77.114,-3.227 85.225,6.741c0.918,1.128 1.633,1.331 1.562,226.931c-0.113,358.762 0.612,359.643 -3.137,364.465c-3.376,4.342 -56.728,2.599 -92.11,2.499c-107.73,-0.307 -204.23,-2.635 -225.316,6.47c-60.501,26.124 -46.848,53.547 -68.086,54.639c-2.782,0.143 -101.637,0.094 -105.113,0.088c-54.779,-0.103 -56.525,-0.636 -63.435,-10.365c-40.718,-57.326 -52.601,-51.189 -286.022,-50.8c-82.033,0.137 -87.627,1.178 -87.8,-9.531c-0.169,-10.456 -0.096,-448.885 -0.071,-518.674c0.023,-62.288 -1.646,-64.072 4.986,-68.752c5.717,-4.034 76.241,-0.151 82.778,-4.504c6.782,-4.515 -2.965,-67.863 7.109,-72.95c6.214,-3.138 63.102,-0.74 123.163,-1.35c15.91,-0.161 43.353,-2.285 48.12,-1.993c21.892,1.34 21.869,-0.867 33.009,0.162c23.103,2.135 55.762,-1.572 85.172,7.979c48.911,15.885 62.96,38.425 70.588,47.633c11.45,13.823 15.837,3.501 24.645,-6.184c6.254,-6.876 39,-42.881 105.944,-47.696Z" style="fill:#b4b3b3;"/><path d="M494.609,553.219c-0.407,17.076 1.214,17.079 -0.627,34.035c-0.311,2.868 0.338,2.847 0.345,36.057c0.003,15.587 -0.881,15.491 -0.853,31.039c0.028,15.402 1.775,46.023 0.975,51.108c-0.711,4.52 1.692,34.784 0.039,51.069c-0.128,1.257 -1.478,86.728 0.089,98.018c0.809,5.83 4.675,13.801 -2.738,22.842c-2.476,3.02 -2.319,-0.763 -9.425,-15.906c-27.026,-57.589 -51.024,-62.776 -66.423,-75.902c-0.18,-0.153 -28.471,-14.127 -37.964,-18.166c-1.656,-0.705 -1.741,-0.376 -21.16,-7.653c-11.154,-4.179 -23.803,-4.69 -25.909,-4.775c-1.976,-0.08 -9.191,-2.012 -14.044,-2.013c-3.563,-0.001 -3.451,0.258 -7.012,0.243c-13.167,-0.055 -20.302,-4.606 -39.079,-3.074c-4.18,0.341 -83.002,1.675 -86.837,-1.923c-3.285,-3.083 -2.667,-4.037 -3.382,-246.065c-0.061,-20.513 -0.738,-250.13 0.802,-256.416c2.011,-8.205 23.508,-7.308 93.443,-7.347c12.12,-0.007 12.042,-1.877 24.041,-0.595c1.871,0.2 78.577,-2.559 93.156,-0.227c111.513,17.833 101.636,101.587 102.591,119.384c1.09,20.321 0.018,24.144 2.155,33.139c0.418,1.759 -0.363,31.361 -0.186,40.958c0.197,10.701 -1.094,10.57 -1.193,34.056c-0.121,28.672 0.774,28.585 -0.858,57.111c-0.105,1.836 0.358,1.747 0.059,22.988c-0.009,0.641 -0,0.594 -0.005,8.016Z" style="fill:#969379;"/><path d="M536.732,498.148c-1.098,-20.142 -0.124,-46.942 -1.226,-55.118c-0.546,-4.05 1.272,-25.43 -1.214,-31.042c-1.948,-4.396 2.613,-54.212 1.32,-70.074c-0.989,-12.122 3.614,-58.847 43.877,-85.729c21.481,-14.342 55.896,-21.32 83.872,-20.296c11.371,0.416 11.243,-2.011 20.033,-1.126c12.363,1.245 45.881,0.31 51.99,1.445c27.469,5.104 100.866,-1.105 110.124,6.723c2.02,1.708 1.76,2.23 1.76,53.954c-0,244.167 0.101,445.269 -0.014,446.545c-1.367,15.112 -95.829,2.569 -142.878,8.742c-145.946,19.146 -160.195,130.597 -168.166,130.315c-5.295,-0.187 -0.034,-18.058 -0.831,-63.926c-1.328,-76.452 0.698,-76.441 0.397,-83.081c-1.672,-36.917 -0.881,-36.931 -1.404,-40.098c-1.602,-9.709 0.349,-29.584 0.358,-31.018c0.266,-39.404 0.262,-39.597 0.185,-43.04c-0.456,-20.355 -1.159,-20.315 -0.977,-22.073c1.402,-13.484 1.026,-13.418 1.526,-26.999c0.949,-25.781 0.727,-25.78 0.988,-28.007c0.678,-5.772 0.011,-37.213 0.28,-46.098Z" style="fill:#969379;"/><path d="M939.186,569.242c0.382,55.537 -1.539,217.894 0.879,239.27c2.458,21.729 -0.47,26.543 -22.373,26.775c-151.44,1.6 -250.74,-8.233 -295.647,18.883c-28.33,17.107 -37.333,40.154 -42.762,38.388c-6.869,-2.234 -2.508,-6.276 1.529,-13.174c47.974,-81.976 109.287,-92.032 201.7,-91.387c50.6,0.353 101.873,8.319 103.965,-2.504c5.845,-30.231 0.113,-458.262 3.051,-464.643c3.876,-8.419 44.808,-6.058 46.747,-3.524c3.014,3.937 4.868,4.381 3.773,146.782c-0.065,8.411 -0.72,93.57 -0.863,105.135Z" style="fill:#605c4f;"/><path d="M450.853,887.558c-1.534,2.37 -1.46,2.304 -2.888,4.781c-1.426,-0.077 -1.433,-0.059 -2.366,-1.231c-31.561,-39.622 -48.835,-45.254 -80.693,-51.168c-56.269,-10.446 -261.831,0.128 -272.19,-7.507c-2.564,-1.89 -2.595,-2.854 -2.706,-442.426c-0.014,-57.343 -2.961,-64.746 4.665,-72.039c4.873,-4.659 40.508,-1.766 42.615,0.337c7.586,7.572 -2.027,449.735 5.044,468.359c3.032,7.986 58.696,1.862 102.483,1.617c100.006,-0.56 144.305,11.029 189.597,71.077c17.845,23.658 17.211,25.705 16.439,28.2Z" style="fill:#605c4f;"/><path d="M450.853,887.558c1.824,2.374 3.305,2.911 0.834,4.703c-2.399,1.74 -3.578,0.129 -3.722,0.078c1.428,-2.477 1.354,-2.411 2.888,-4.781Z" style="fill:#625e5d;"/></g><g id="virgil_owl_bw.png"><path d="M292.367,185.677c-1.989,-2.671 -1.973,-2.656 -2.148,-2.885c-24.19,-31.526 -24.987,-56.481 10.514,-49.868c14.926,2.78 12.913,6.684 21.399,25.306c11.176,24.526 22.474,6.902 35.656,-4.754c102.549,-90.682 244.542,-64.671 312.245,-3.807c12.222,10.987 24.862,37.055 42.607,2.916c10.414,-20.034 13.381,-20.654 39.801,-18.561c20.088,1.592 -12.428,50.565 -13.13,57.462c-0.08,0.786 -0.263,2.581 -3.733,9.142c-1.723,3.258 -0.93,3.462 -2.04,6.95c-3.778,11.87 -1.285,12.026 -0.642,20.018c0.827,10.277 1.946,10.085 1.951,10.977c0.032,6.864 3.206,15.54 5.13,22.134c15.076,51.688 6.477,150.92 -2.383,187.264c-3.723,15.27 -28.067,157.176 -170.185,254.812c-2.595,1.783 -31.647,21.742 -32.558,22.111c-1.133,0.46 -5.937,2.408 -13.977,6.178c-29.146,13.666 -29.34,13.17 -31.78,14.534c-14.214,7.943 -71.15,25.245 -76.334,26.335l-2.006,0.263c-23.868,7.492 -62.264,14.127 -66.008,13.84c-11.557,-0.887 -18.306,1.962 -35.074,2.481c-8.27,0.256 -8.189,-0.177 -14.993,-1.262c-11.251,-1.793 -9.389,-8.339 -9.421,-8.822c-0.452,-9.764 0.414,-36.856 0.517,-40.059c0.21,-6.56 -0.432,-6.461 -0.29,-13.024c2.801,-129.297 -6.493,-429.641 7.064,-467.798c7.544,-21.232 10.112,-20.039 20.069,-43.051c1.39,-4.342 0.626,-4.915 -4.848,-11.089c-14.367,-16.205 -14.11,-16.376 -15.403,-17.741Z" style="fill:#e6543f;"/><path d="M658.231,230.123c6.761,-0.016 13.206,0.168 20.063,2.346c26.571,8.439 36.056,81.661 13.927,142.296c-35.413,97.035 -137.214,127.451 -211.21,113.856c-144.521,-26.553 -177.265,-172.671 -139.106,-245.951c9.308,-17.875 67.397,-14.58 101.829,5.171c61.06,35.026 50.551,79.375 53.62,130.922c0.596,10.003 5.845,8.173 23.675,9.855c15.801,1.491 16.655,-4.058 15.362,-24.875c-8.221,-132.407 100.19,-132.351 121.839,-133.62Z" style="fill:#fff;"/><path d="M326.287,701.313c0.192,-7.551 0.254,-20.005 3.341,-29.068c2.587,-7.595 22.838,-7.275 58.318,-23.703c96.549,-44.703 132.888,-91.766 159.311,-116.271c4.81,-4.461 24.212,-5.946 37.961,-10.954c7.962,-2.9 42.961,-12.962 77.702,-39.767c21.837,-16.849 38.539,-42.031 32.512,-22.576c-15.234,49.177 -58.421,179.733 -225.599,252.122c-60.88,26.361 -133.408,34.134 -140.243,30.463c-3.277,-1.76 -3.312,-39.823 -3.304,-40.246Z" style="fill:#fff;"/><path d="M633.145,194.064c-29.226,3.625 -62.726,8.521 -97.271,41.33c-14.375,13.653 -17.749,28.498 -32.449,9.825c-3.7,-4.7 -32.095,-46.267 -105.609,-51.79c-10.461,-0.786 -25.941,2.029 -17.98,-5.891c11.849,-11.787 87.02,-71.362 177.14,-49.693c35.625,8.566 56.304,17.845 88.611,44.179c0.643,0.524 7.303,5.952 7.215,7.448c-0.154,2.618 -6.69,3.199 -19.657,4.592Z" style="fill:#b4b3b3;"/><path d="M326.279,605.187c-0.9,-24.869 2.322,-26.579 21.347,-36.274c68.365,-34.839 63.389,-56.784 100.363,-47.308c32.006,8.202 44.65,7.719 37.651,15.165c-31.974,34.014 -118.016,81.241 -147.029,87.949c-14.428,3.336 -11.084,-4.82 -12.332,-19.532Z" style="fill:#b4b3b3;"/><path d="M631.242,282.22c3.329,0.539 28.266,4.576 26.887,32.465c-1.063,21.489 -31.607,44.179 -55.638,19.696c-21.842,-22.252 -8.18,-56.04 28.751,-52.161Z" style="fill:#e6543f;"/><path d="M409.828,343.119c-63.552,-2.425 -30.238,-88.421 19.829,-54.156c8.369,5.728 14.566,25.793 10.326,36.788c-7.088,18.381 -29.529,17.313 -30.155,17.368Z" style="fill:#e6543f;"/><path d="M326.286,510.012c-0.08,-3.379 -0.551,-48.336 -0.315,-62.094c0.014,-0.813 1.094,-11.366 10.146,0.675c20.116,26.76 48.907,39.799 47.262,49.336c-1.293,7.493 -45.353,30.957 -47.787,31.762c-11.153,3.688 -9.096,-5.701 -9.306,-19.679Z" style="fill:#b4b3b3;"/></g></svg>