o 
v -16.5128 -20.7083 -37.2416
v -15.9752 -20.2243 -35.4590
v -17.5982 -21.7642 -36.2028
v -20.0085 -22.4895 -39.2904
v -17.7163 -21.7394 -38.2556
v -18.7456 -22.6194 -37.6488
v -17.5982 -21.7642 -36.2028
v -17.7163 -21.7394 -38.2556
v -16.5128 -20.7083 -37.2416
v -17.7163 -21.7394 -38.2556
v -20.0085 -22.4895 -39.2904
v -18.1226 -21.2289 -39.4224
v -22.4326 -22.7125 -40.9494
v -23.8544 -23.2934 -43.0429
v -23.3230 -21.6884 -42.9095
v -22.4326 -22.7125 -40.9494
v -23.3230 -21.6884 -42.9095
v -21.3603 -20.9969 -40.9973
v -16.1148 -19.7930 -33.5907
v -15.9752 -20.2243 -35.4590
v -15.1123 -18.5909 -34.1247
v -15.5895 -18.9090 -36.4902
v -15.1123 -18.5909 -34.1247
v -15.9752 -20.2243 -35.4590
v -15.9752 -20.2243 -35.4590
v -16.5128 -20.7083 -37.2416
v -15.5895 -18.9090 -36.4902
v -21.3603 -20.9969 -40.9973
v -23.3230 -21.6884 -42.9095
v -21.6613 -20.0100 -41.8819
v -23.3230 -21.6884 -42.9095
v -23.5834 -20.0501 -43.4338
v -21.6613 -20.0100 -41.8819
v -15.5895 -18.9090 -36.4902
v -16.4303 -20.0453 -37.8693
v -17.6464 -19.1927 -38.7293
v -15.5895 -18.9090 -36.4902
v -17.6464 -19.1927 -38.7293
v -15.8380 -18.3638 -37.6202
v -17.6464 -19.1927 -38.7293
v -18.4445 -20.6533 -40.1228
v -19.5139 -19.9211 -40.9759
v -19.5139 -19.9211 -40.9759
v -20.1192 -18.5236 -41.7153
v -17.9760 -18.4513 -40.9543
v -21.6613 -20.0100 -41.8819
v -23.5834 -20.0501 -43.4338
v -21.9627 -18.7506 -42.6869
v -18.0948 -17.3780 -41.5006
v -20.0003 -17.2904 -42.3428
v -18.5872 -15.6972 -41.5586
v -21.0430 -16.2638 -43.0786
v -18.5872 -15.6972 -41.5586
v -20.0003 -17.2904 -42.3428
v -15.8549 -15.1405 -37.2606
v -15.9789 -15.4401 -39.1722
v -16.8173 -13.8621 -36.5059
v -16.0995 -13.9899 -38.6686
v -16.8173 -13.8621 -36.5059
v -15.9789 -15.4401 -39.1722
v -18.5872 -15.6972 -41.5586
v -21.0430 -16.2638 -43.0786
v -18.9873 -14.6633 -42.3605
v -21.0430 -16.2638 -43.0786
v -21.1933 -15.1077 -43.7581
v -18.9873 -14.6633 -42.3605
v -26.3106 -15.6114 -46.5396
v -26.9265 -15.6270 -44.4816
v -26.5159 -17.0919 -45.4160
v -22.2146 -14.0091 -45.8320
v -24.8003 -14.9220 -45.4643
v -23.3462 -13.3658 -46.0865
v -19.1587 -11.6657 -44.0265
v -21.0051 -12.3577 -45.3726
v -19.0653 -10.4279 -44.3284
v -22.1781 -11.6847 -45.7205
v -19.0653 -10.4279 -44.3284
v -21.0051 -12.3577 -45.3726
v -16.7391 -9.8263 -41.3628
v -17.7645 -10.7454 -43.5940
v -19.0653 -10.4279 -44.3284
v -16.7391 -9.8263 -41.3628
v -19.0653 -10.4279 -44.3284
v -17.7998 -9.2036 -42.9885
v -19.0653 -10.4279 -44.3284
v -22.1781 -11.6847 -45.7205
v -21.1515 -10.1452 -44.0212
v -19.0653 -10.4279 -44.3284
v -21.1515 -10.1452 -44.0212
v -18.7948 -8.8648 -43.3690
v -17.3278 -8.2146 -41.6596
v -18.2730 -7.3075 -42.2501
v -17.9032 -7.2679 -39.5493
v -18.7948 -8.8648 -43.3690
v -21.1515 -10.1452 -44.0212
v -20.4377 -8.6519 -43.1420
v -18.7948 -8.8648 -43.3690
v -20.4377 -8.6519 -43.1420
v -18.2730 -7.3075 -42.2501
v -24.4234 -12.3788 -52.7708
v -26.2560 -11.6471 -54.7707
v -24.7953 -10.8853 -53.6486
v -27.8482 -9.6403 -54.5947
v -24.7953 -10.8853 -53.6486
v -26.2560 -11.6471 -54.7707
v -18.3876 -6.1930 -40.6149
v -19.1201 -6.2794 -37.8866
v -17.9032 -7.2679 -39.5493
v -17.9032 -7.2679 -39.5493
v -18.2730 -7.3075 -42.2501
v -18.3876 -6.1930 -40.6149
v -19.9789 -7.1155 -42.1929
v -18.3876 -6.1930 -40.6149
v -18.2730 -7.3075 -42.2501
v -18.2730 -7.3075 -42.2501
v -20.4377 -8.6519 -43.1420
v -19.9789 -7.1155 -42.1929
v -27.8482 -9.6403 -54.5947
v -26.0620 -9.7874 -53.9712
v -24.7953 -10.8853 -53.6486
v -29.7404 -7.9902 -54.4327
v -27.2742 -8.3993 -54.3905
v -27.8482 -9.6403 -54.5947
v -27.8482 -9.6403 -54.5947
v -31.3744 -8.6011 -54.2473
v -29.7404 -7.9902 -54.4327
v -19.6962 -5.3649 -39.2270
v -18.9676 -4.5509 -36.7478
v -19.1201 -6.2794 -37.8866
v -19.1201 -6.2794 -37.8866
v -18.3876 -6.1930 -40.6149
v -19.6962 -5.3649 -39.2270
v -20.9964 -7.6209 -44.5395
v -22.0732 -8.2998 -45.4599
v -21.1936 -5.7989 -43.6753
v -22.0732 -8.2998 -45.4599
v -21.7077 -6.5109 -45.2282
v -21.1936 -5.7989 -43.6753
v -20.8569 -2.2650 -32.7958
v -21.8647 -2.1466 -34.3540
v -22.5373 -2.5550 -32.2275
v -22.5373 -2.5550 -32.2275
v -21.8647 -2.1466 -34.3540
v -23.4888 -2.3695 -33.9152
v -22.5373 -2.5550 -32.2275
v -23.4888 -2.3695 -33.9152
v -24.2550 -2.9562 -31.9177
v -21.7077 -6.5109 -45.2282
v -20.9476 -6.8778 -46.9750
v -21.2761 -4.8704 -45.3699
v -20.9476 -6.8778 -46.9750
v -20.0615 -5.7160 -47.2286
v -21.2761 -4.8704 -45.3699
v -20.9361 -7.3154 -48.1168
v -22.2082 -6.5824 -49.3151
v -20.5223 -5.5645 -48.5599
v -22.2082 -6.5824 -49.3151
v -22.0676 -5.1140 -49.8795
v -20.5223 -5.5645 -48.5599
v -20.6057 -3.8010 -49.0507
v -19.9923 -4.4410 -47.3882
v -20.5223 -5.5645 -48.5599
v -22.0676 -5.1140 -49.8795
v -20.6057 -3.8010 -49.0507
v -22.6187 -3.6796 -50.4764
v -20.6057 -3.8010 -49.0507
v -22.0676 -5.1140 -49.8795
v -20.1740 -3.0222 -47.3731
v -20.9884 -3.4857 -45.2923
v -19.9923 -4.4410 -47.3882
v -20.9884 -3.4857 -45.2923
v -20.1740 -3.0222 -47.3731
v -21.2200 -2.0062 -45.5637
v -20.6057 -3.8010 -49.0507
v -22.6187 -3.6796 -50.4764
v -21.5314 -2.1509 -49.6929
v -24.6355 -2.3725 -50.9638
v -21.5314 -2.1509 -49.6929
v -22.6187 -3.6796 -50.4764
v -22.6187 -3.6796 -50.4764
v -24.5817 -3.7886 -51.3508
v -24.6355 -2.3725 -50.9638
v -21.5314 -2.1509 -49.6929
v -24.6355 -2.3725 -50.9638
v -23.6791 -0.8994 -50.3053
v -21.5314 -2.1509 -49.6929
v -23.6791 -0.8994 -50.3053
v -21.3841 -0.6164 -49.2647
v -29.0805 -1.4146 -52.5954
v -29.1340 -0.2676 -52.4435
v -26.5844 -0.5443 -52.9263
v -24.6355 -2.3725 -50.9638
v -25.0130 -0.8762 -51.8440
v -23.6791 -0.8994 -50.3053
vn 0.6912 -0.7226 -0.0123
vn 0.6912 -0.7226 -0.0123
vn 0.6912 -0.7226 -0.0123
vn 0.4444 -0.7990 -0.4051
vn 0.4444 -0.7990 -0.4051
vn 0.4444 -0.7990 -0.4051
vn 0.6727 -0.7384 -0.0476
vn 0.6727 -0.7384 -0.0476
vn 0.6727 -0.7384 -0.0476
vn 0.4621 -0.7421 -0.4856
vn 0.4621 -0.7421 -0.4856
vn 0.4621 -0.7421 -0.4856
vn 0.8332 -0.2342 -0.5009
vn 0.8332 -0.2342 -0.5009
vn 0.8332 -0.2342 -0.5009
vn 0.6990 -0.4524 -0.5539
vn 0.6990 -0.4524 -0.5539
vn 0.6990 -0.4524 -0.5539
vn 0.7940 -0.5767 0.1925
vn 0.7940 -0.5767 0.1925
vn 0.7940 -0.5767 0.1925
vn 0.9174 -0.3746 -0.1347
vn 0.9174 -0.3746 -0.1347
vn 0.9174 -0.3746 -0.1347
vn 0.9038 -0.3947 -0.1654
vn 0.9038 -0.3947 -0.1654
vn 0.9038 -0.3947 -0.1654
vn 0.7156 -0.3324 -0.6143
vn 0.7156 -0.3324 -0.6143
vn 0.7156 -0.3324 -0.6143
vn 0.6232 -0.1468 -0.7681
vn 0.6232 -0.1468 -0.7681
vn 0.6232 -0.1468 -0.7681
vn 0.6825 0.3025 -0.6653
vn 0.6825 0.3025 -0.6653
vn 0.6825 0.3025 -0.6653
vn 0.5859 -0.6720 -0.4530
vn 0.5859 -0.6720 -0.4530
vn 0.5859 -0.6720 -0.4530
vn 0.7028 0.2510 -0.6656
vn 0.7028 0.2510 -0.6656
vn 0.7028 0.2510 -0.6656
vn 0.3259 -0.3280 -0.8867
vn 0.3259 -0.3280 -0.8867
vn 0.3259 -0.3280 -0.8867
vn 0.5982 -0.3250 -0.7325
vn 0.5982 -0.3250 -0.7325
vn 0.5982 -0.3250 -0.7325
vn 0.4061 0.0876 -0.9096
vn 0.4061 0.0876 -0.9096
vn 0.4061 0.0876 -0.9096
vn 0.5353 -0.0601 -0.8425
vn 0.5353 -0.0601 -0.8425
vn 0.5353 -0.0601 -0.8425
vn 0.7452 0.6497 -0.1502
vn 0.7452 0.6497 -0.1502
vn 0.7452 0.6497 -0.1502
vn 0.9481 -0.0311 0.3165
vn 0.9481 -0.0311 0.3165
vn 0.9481 -0.0311 0.3165
vn 0.5492 -0.3690 -0.7498
vn 0.5492 -0.3690 -0.7498
vn 0.5492 -0.3690 -0.7498
vn 0.5493 -0.3692 -0.7496
vn 0.5493 -0.3692 -0.7496
vn 0.5493 -0.3692 -0.7496
vn 0.9544 0.0849 0.2863
vn 0.9544 0.0849 0.2863
vn 0.9544 0.0849 0.2863
vn -0.0015 -0.3700 -0.9290
vn -0.0015 -0.3700 -0.9290
vn -0.0015 -0.3700 -0.9290
vn 0.6280 -0.2288 -0.7438
vn 0.6280 -0.2288 -0.7438
vn 0.6280 -0.2288 -0.7438
vn 0.3556 0.1424 -0.9237
vn 0.3556 0.1424 -0.9237
vn 0.3556 0.1424 -0.9237
vn 0.4651 0.7226 -0.5114
vn 0.4651 0.7226 -0.5114
vn 0.4651 0.7226 -0.5114
vn 0.7915 -0.1782 -0.5847
vn 0.7915 -0.1782 -0.5847
vn 0.7915 -0.1782 -0.5847
vn 0.0014 0.7407 -0.6719
vn 0.0014 0.7407 -0.6719
vn 0.0014 0.7407 -0.6719
vn -0.0530 0.5290 -0.8470
vn -0.0530 0.5290 -0.8470
vn -0.0530 0.5290 -0.8470
vn 0.7229 0.6823 -0.1090
vn 0.7229 0.6823 -0.1090
vn 0.7229 0.6823 -0.1090
vn -0.0495 0.5242 -0.8502
vn -0.0495 0.5242 -0.8502
vn -0.0495 0.5242 -0.8502
vn -0.0348 0.5908 -0.8061
vn -0.0348 0.5908 -0.8061
vn -0.0348 0.5908 -0.8061
vn 0.6679 -0.2464 -0.7022
vn 0.6679 -0.2464 -0.7022
vn 0.6679 -0.2464 -0.7022
vn 0.4166 0.4021 -0.8153
vn 0.4166 0.4021 -0.8153
vn 0.4166 0.4021 -0.8153
vn 0.7826 0.5791 0.2285
vn 0.7826 0.5791 0.2285
vn 0.7826 0.5791 0.2285
vn 0.9465 0.2938 -0.1339
vn 0.9465 0.2938 -0.1339
vn 0.9465 0.2938 -0.1339
vn 0.0743 0.8264 -0.5581
vn 0.0743 0.8264 -0.5581
vn 0.0743 0.8264 -0.5581
vn 0.0298 0.5189 -0.8543
vn 0.0298 0.5189 -0.8543
vn 0.0298 0.5189 -0.8543
vn 0.3357 0.1126 -0.9352
vn 0.3357 0.1126 -0.9352
vn 0.3357 0.1126 -0.9352
vn 0.0408 0.1438 -0.9888
vn 0.0408 0.1438 -0.9888
vn 0.0408 0.1438 -0.9888
vn -0.1045 -0.0222 -0.9943
vn -0.1045 -0.0222 -0.9943
vn -0.1045 -0.0222 -0.9943
vn 0.9397 0.1264 -0.3177
vn 0.9397 0.1264 -0.3177
vn 0.9397 0.1264 -0.3177
vn 0.6677 0.7166 0.2020
vn 0.6677 0.7166 0.2020
vn 0.6677 0.7166 0.2020
vn 0.4175 0.4260 -0.8027
vn 0.4175 0.4260 -0.8027
vn 0.4175 0.4260 -0.8027
vn 0.9565 -0.1642 -0.2413
vn 0.9565 -0.1642 -0.2413
vn 0.9565 -0.1642 -0.2413
vn -0.1183 0.9814 0.1510
vn -0.1183 0.9814 0.1510
vn -0.1183 0.9814 0.1510
vn -0.0918 0.9829 0.1597
vn -0.0918 0.9829 0.1597
vn -0.0918 0.9829 0.1597
vn -0.1863 0.9597 0.2104
vn -0.1863 0.9597 0.2104
vn -0.1863 0.9597 0.2104
vn 0.8835 -0.1957 0.4256
vn 0.8835 -0.1957 0.4256
vn 0.8835 -0.1957 0.4256
vn 0.6826 -0.3850 0.6212
vn 0.6826 -0.3850 0.6212
vn 0.6826 -0.3850 0.6212
vn 0.5429 -0.3243 -0.7746
vn 0.5429 -0.3243 -0.7746
vn 0.5429 -0.3243 -0.7746
vn 0.5493 -0.3451 -0.7610
vn 0.5493 -0.3451 -0.7610
vn 0.5493 -0.3451 -0.7610
vn 0 0 0
vn 0 0 0
vn 0.6060 -0.1866 -0.7733
vn 0.6060 -0.1866 -0.7733
vn 0.6060 -0.1866 -0.7733
vn 0.5690 -0.1200 -0.8135
vn 0.5690 -0.1200 -0.8135
vn 0.5690 -0.1200 -0.8135
vn 0.9164 0.1133 0.3839
vn 0.9164 0.1133 0.3839
vn 0.9164 0.1133 0.3839
vn 0.8929 0.2126 0.3969
vn 0.8929 0.2126 0.3969
vn 0.8929 0.2126 0.3969
vn 0.5783 0.0069 -0.8158
vn 0.5783 0.0069 -0.8158
vn 0.5783 0.0069 -0.8158
vn 0.3573 0.2121 -0.9096
vn 0.3573 0.2121 -0.9096
vn 0.3573 0.2121 -0.9096
vn 0.3812 0.2571 -0.8880
vn 0.3812 0.2571 -0.8880
vn 0.3812 0.2571 -0.8880
vn 0.3625 0.1740 -0.9156
vn 0.3625 0.1740 -0.9156
vn 0.3625 0.1740 -0.9156
vn 0.3813 0.2143 -0.8993
vn 0.3813 0.2143 -0.8993
vn 0.3813 0.2143 -0.8993
vn -0.1719 0.1214 -0.9776
vn -0.1719 0.1214 -0.9776
vn -0.1719 0.1214 -0.9776
vn 0.7401 -0.1924 -0.6445
vn 0.7401 -0.1924 -0.6445
vn 0.7401 -0.1924 -0.6445
f 1//1 2//2 3//3
f 4//4 5//5 6//6
f 7//7 8//8 9//9
f 10//10 11//11 12//12
f 13//13 14//14 15//15
f 16//16 17//17 18//18
f 19//19 20//20 21//21
f 22//22 23//23 24//24
f 25//25 26//26 27//27
f 28//28 29//29 30//30
f 31//31 32//32 33//33
f 34//34 35//35 36//36
f 37//37 38//38 39//39
f 40//40 41//41 42//42
f 43//43 44//44 45//45
f 46//46 47//47 48//48
f 49//49 50//50 51//51
f 52//52 53//53 54//54
f 55//55 56//56 57//57
f 58//58 59//59 60//60
f 61//61 62//62 63//63
f 64//64 65//65 66//66
f 67//67 68//68 69//69
f 70//70 71//71 72//72
f 73//73 74//74 75//75
f 76//76 77//77 78//78
f 79//79 80//80 81//81
f 82//82 83//83 84//84
f 85//85 86//86 87//87
f 88//88 89//89 90//90
f 91//91 92//92 93//93
f 94//94 95//95 96//96
f 97//97 98//98 99//99
f 100//100 101//101 102//102
f 103//103 104//104 105//105
f 106//106 107//107 108//108
f 109//109 110//110 111//111
f 112//112 113//113 114//114
f 115//115 116//116 117//117
f 118//118 119//119 120//120
f 121//121 122//122 123//123
f 124//124 125//125 126//126
f 127//127 128//128 129//129
f 130//130 131//131 132//132
f 133//133 134//134 135//135
f 136//136 137//137 138//138
f 139//139 140//140 141//141
f 142//142 143//143 144//144
f 145//145 146//146 147//147
f 148//148 149//149 150//150
f 151//151 152//152 153//153
f 154//154 155//155 156//156
f 157//157 158//158 159//159
f 162//162 163//163 164//164
f 165//165 166//166 167//167
f 168//168 169//169 170//170
f 171//171 172//172 173//173
f 174//174 175//175 176//176
f 177//177 178//178 179//179
f 180//180 181//181 182//182
f 183//183 184//184 185//185
f 186//186 187//187 188//188
f 189//189 190//190 191//191
f 192//192 193//193 194//194
