o 
v -24.1293 -0.4630 -37.1925
v -22.9977 -0.7608 -39.1386
v -24.4624 0.6406 -37.1922
v -22.0143 0.5929 -43.6790
v -22.2664 0.7623 -41.2217
v -22.2745 -0.3657 -42.5717
v -22.2745 -0.3657 -42.5717
v -22.0537 -0.7855 -44.7945
v -22.0143 0.5929 -43.6790
v -21.4446 0.2277 -45.9839
v -22.0143 0.5929 -43.6790
v -22.0537 -0.7855 -44.7945
v -22.0537 -0.7855 -44.7945
v -20.9377 -0.6723 -47.4687
v -21.4446 0.2277 -45.9839
v -24.9629 2.3918 -37.7860
v -23.8154 1.1599 -38.1973
v -23.4044 1.7250 -39.6729
v -22.4958 1.6292 -41.8862
v -23.4044 1.7250 -39.6729
v -22.2664 0.7623 -41.2217
v -22.2593 1.5849 -44.2010
v -22.4958 1.6292 -41.8862
v -22.0143 0.5929 -43.6790
v -20.9089 0.4251 -48.8016
v -22.9157 0.4210 -50.8569
v -21.6071 1.8263 -49.8691
v -20.9089 0.4251 -48.8016
v -21.6071 1.8263 -49.8691
v -20.6846 1.5288 -47.3657
v -29.3463 0.5808 -51.9476
v -27.2084 1.4011 -51.9468
v -26.9569 0.5843 -52.4773
v -22.9157 0.4210 -50.8569
v -23.5918 1.5550 -51.5425
v -21.6071 1.8263 -49.8691
v -23.1062 2.4532 -42.7925
v -23.5038 2.6104 -40.6068
v -22.4958 1.6292 -41.8862
v -29.3892 1.0650 -51.2802
v -29.5847 1.4373 -50.9061
v -26.2581 2.4426 -51.3759
v -29.3892 1.0650 -51.2802
v -26.2581 2.4426 -51.3759
v -27.2084 1.4011 -51.9468
v -20.6846 1.5288 -47.3657
v -21.6071 1.8263 -49.8691
v -20.9173 2.7069 -48.4207
v -21.6071 1.8263 -49.8691
v -23.5918 1.5550 -51.5425
v -23.1050 2.7716 -50.8378
v -23.5038 2.6104 -40.6068
v -23.1062 2.4532 -42.7925
v -24.2680 3.5772 -41.2125
v -23.1062 2.4532 -42.7925
v -22.3216 2.3230 -44.8703
v -22.7859 3.7036 -44.0685
v -23.1062 2.4532 -42.7925
v -22.7859 3.7036 -44.0685
v -24.2680 3.5772 -41.2125
v -22.2248 4.0888 -47.0891
v -22.7859 3.7036 -44.0685
v -22.0776 3.0886 -46.0174
v -29.5847 1.4373 -50.9061
v -28.4011 2.1514 -50.9429
v -26.2581 2.4426 -51.3759
v -24.0140 3.1179 -50.9487
v -23.1050 2.7716 -50.8378
v -26.2581 2.4426 -51.3759
v -25.1089 1.9536 -51.6534
v -26.2581 2.4426 -51.3759
v -23.1050 2.7716 -50.8378
v -24.0140 3.1179 -50.9487
v -26.2581 2.4426 -51.3759
v -23.2631 3.9840 -50.5175
v -25.8996 3.1487 -51.3318
v -23.2631 3.9840 -50.5175
v -26.2581 2.4426 -51.3759
v -24.2680 3.5772 -41.2125
v -23.8364 4.5825 -42.6566
v -25.0754 4.7861 -41.1788
v -24.2680 3.5772 -41.2125
v -22.7859 3.7036 -44.0685
v -23.8364 4.5825 -42.6566
v -23.7427 4.8425 -44.8422
v -23.8364 4.5825 -42.6566
v -22.7859 3.7036 -44.0685
v -22.7859 3.7036 -44.0685
v -22.2248 4.0888 -47.0891
v -23.7427 4.8425 -44.8422
v -22.9604 5.2245 -47.6377
v -23.7427 4.8425 -44.8422
v -22.2248 4.0888 -47.0891
v -23.2631 3.9840 -50.5175
v -22.2248 4.0888 -47.0891
v -21.7601 3.4050 -49.1755
v -22.2248 4.0888 -47.0891
v -23.2631 3.9840 -50.5175
v -22.9604 5.2245 -47.6377
v -23.3509 5.1581 -50.0781
v -22.9604 5.2245 -47.6377
v -23.2631 3.9840 -50.5175
v -28.4011 2.1514 -50.9429
v -28.9294 2.3295 -50.7895
v -26.1044 3.6450 -51.1275
v -28.4011 2.1514 -50.9429
v -26.1044 3.6450 -51.1275
v -25.8996 3.1487 -51.3318
v -23.2631 3.9840 -50.5175
v -25.8996 3.1487 -51.3318
v -26.1044 3.6450 -51.1275
v -23.2631 3.9840 -50.5175
v -26.1044 3.6450 -51.1275
v -23.3509 5.1581 -50.0781
v -23.8364 4.5825 -42.6566
v -23.7427 4.8425 -44.8422
v -24.4743 5.4276 -42.7268
v -23.7427 4.8425 -44.8422
v -22.9604 5.2245 -47.6377
v -24.2858 6.0151 -45.4612
v -26.5518 6.8801 -41.5894
v -25.8076 5.7975 -41.4078
v -25.1409 6.4510 -43.2245
v -22.9604 5.2245 -47.6377
v -23.3509 5.1581 -50.0781
v -23.1737 6.1963 -47.7950
v -22.9604 5.2245 -47.6377
v -23.1737 6.1963 -47.7950
v -24.2858 6.0151 -45.4612
v -28.9294 2.3295 -50.7895
v -28.7015 2.7645 -50.7062
v -26.1044 3.6450 -51.1275
v -23.3509 5.1581 -50.0781
v -26.1044 3.6450 -51.1275
v -24.6828 4.7240 -50.8032
v -37.2770 4.8876 -55.1070
v -35.8527 5.1210 -54.2837
v -35.8410 3.4689 -54.3291
v -39.7556 3.2280 -54.6373
v -40.6642 4.3546 -54.4633
v -39.1108 4.8514 -55.2331
v -39.7556 3.2280 -54.6373
v -39.1108 4.8514 -55.2331
v -37.7375 3.2113 -54.6367
v -35.8410 3.4689 -54.3291
v -37.7375 3.2113 -54.6367
v -37.2770 4.8876 -55.1070
v -39.1108 4.8514 -55.2331
v -37.2770 4.8876 -55.1070
v -37.7375 3.2113 -54.6367
v -41.2704 4.8589 -50.5333
v -41.6602 6.4494 -51.4156
v -41.6509 5.2696 -52.3137
v -41.1589 6.6767 -53.3007
v -41.6509 5.2696 -52.3137
v -41.6602 6.4494 -51.4156
v -37.2770 4.8876 -55.1070
v -39.1108 4.8514 -55.2331
v -38.1766 6.2528 -55.5938
v -31.8286 9.1102 -41.9598
v -30.8146 11.0873 -42.8141
v -32.5265 9.9350 -42.6245
v -32.5265 9.9350 -42.6245
v -30.8146 11.0873 -42.8141
v -32.5220 11.4532 -43.5373
v -27.6508 5.0786 -51.1994
v -28.9487 5.0709 -52.1218
v -27.1091 6.6417 -51.7695
v -25.9582 6.4396 -51.0399
v -27.1091 6.6417 -51.7695
v -26.1815 8.3164 -50.3734
v -27.5069 8.3831 -52.0246
v -26.1815 8.3164 -50.3734
v -27.1091 6.6417 -51.7695
v -41.6602 6.4494 -51.4156
v -41.1412 8.0218 -52.9873
v -41.1589 6.6767 -53.3007
v -29.7155 12.1283 -44.5095
v -28.8894 11.3121 -43.4725
v -28.5818 11.1356 -45.4179
v -28.8894 11.3121 -43.4725
v -29.7155 12.1283 -44.5095
v -30.8146 11.0873 -42.8141
v -31.1109 12.5063 -44.1900
v -30.8146 11.0873 -42.8141
v -29.7155 12.1283 -44.5095
v -30.8146 11.0873 -42.8141
v -31.1109 12.5063 -44.1900
v -32.5220 11.4532 -43.5373
v -25.9461 8.9798 -48.2108
v -26.1815 8.3164 -50.3734
v -26.7549 9.6594 -48.7908
v -26.1815 8.3164 -50.3734
v -27.5069 8.3831 -52.0246
v -27.3443 9.9980 -50.3108
v -26.1815 8.3164 -50.3734
v -27.3443 9.9980 -50.3108
v -26.7549 9.6594 -48.7908
v -31.3507 6.3549 -52.6074
v -32.7058 6.8594 -52.7428
v -31.5290 7.8418 -53.7302
v -32.7058 6.8594 -52.7428
v -32.4152 8.8965 -54.0899
v -31.5290 7.8418 -53.7302
v -34.9693 7.4972 -54.2043
v -36.3481 7.5546 -55.0055
v -35.7004 9.2018 -54.5921
v -27.4110 10.4018 -45.8902
v -27.7687 10.9259 -47.7994
v -28.5818 11.1356 -45.4179
v -29.1224 12.1735 -46.6180
v -28.5818 11.1356 -45.4179
v -27.7687 10.9259 -47.7994
v -28.5818 11.1356 -45.4179
v -29.1224 12.1735 -46.6180
v -29.7155 12.1283 -44.5095
v -30.3814 12.8275 -45.9050
v -29.7155 12.1283 -44.5095
v -29.1224 12.1735 -46.6180
v -26.8307 9.7820 -47.1351
v -26.7549 9.6594 -48.7908
v -27.7687 10.9259 -47.7994
v -27.3443 9.9980 -50.3108
v -27.7687 10.9259 -47.7994
v -26.7549 9.6594 -48.7908
v -27.7687 10.9259 -47.7994
v -28.1206 11.3180 -49.7166
v -28.6357 12.4454 -48.6705
v -27.7687 10.9259 -47.7994
v -28.6357 12.4454 -48.6705
v -29.1224 12.1735 -46.6180
v -27.7687 10.9259 -47.7994
v -27.3443 9.9980 -50.3108
v -28.1206 11.3180 -49.7166
v -29.1224 12.1735 -46.6180
v -28.6357 12.4454 -48.6705
v -29.7556 13.1541 -47.7728
v -33.6580 12.9018 -44.6022
v -32.8398 14.1384 -46.5297
v -33.7456 14.7967 -46.5772
v -33.6580 12.9018 -44.6022
v -33.7456 14.7967 -46.5772
v -34.3735 13.6911 -44.6743
v -30.7797 9.7021 -54.2892
v -29.4402 9.1919 -53.4519
v -30.3852 7.9307 -53.6596
v -32.4152 8.8965 -54.0899
v -30.7797 9.7021 -54.2892
v -31.5290 7.8418 -53.7302
v -40.8719 9.4520 -52.6816
v -39.4699 10.9752 -53.0732
v -40.0254 9.3260 -53.7967
v -36.2898 11.2324 -54.3304
v -34.7011 11.1035 -54.5779
v -35.7004 9.2018 -54.5921
v -35.7004 9.2018 -54.5921
v -37.3741 9.4215 -54.6947
v -36.2898 11.2324 -54.3304
v -33.7456 14.7967 -46.5772
v -33.1865 14.8805 -48.2272
v -34.3047 15.3037 -49.6496
v -33.7456 14.7967 -46.5772
v -34.3047 15.3037 -49.6496
v -34.4660 15.3822 -47.4186
v -34.3047 15.3037 -49.6496
v -33.1865 14.8805 -48.2272
v -32.8500 14.7448 -50.0297
v -40.6486 11.0553 -52.3937
v -40.6544 12.7551 -51.9898
v -38.8637 13.2547 -52.3480
v -40.6486 11.0553 -52.3937
v -38.8637 13.2547 -52.3480
v -39.4699 10.9752 -53.0732
v -37.1626 12.0090 -53.6950
v -37.6111 13.1252 -53.1520
v -35.5965 13.4835 -53.0297
v -37.1626 12.0090 -53.6950
v -35.5965 13.4835 -53.0297
v -36.2898 11.2324 -54.3304
v -35.1602 12.2504 -54.2331
v -36.2898 11.2324 -54.3304
v -35.5965 13.4835 -53.0297
v -29.9727 12.0555 -52.9516
v -31.3865 11.5631 -53.8693
v -31.1681 13.1257 -52.5822
v -31.3865 11.5631 -53.8693
v -33.0353 11.1000 -54.5656
v -32.5198 12.9548 -53.3466
v -31.3865 11.5631 -53.8693
v -32.5198 12.9548 -53.3466
v -31.1681 13.1257 -52.5822
v -33.0353 11.1000 -54.5656
v -34.7011 11.1035 -54.5779
v -34.0782 12.6288 -53.8857
v -33.0353 11.1000 -54.5656
v -34.0782 12.6288 -53.8857
v -32.5198 12.9548 -53.3466
v -34.4660 15.3822 -47.4186
v -34.3047 15.3037 -49.6496
v -35.3195 15.8959 -47.7128
v -36.5080 14.9703 -51.1875
v -35.3195 15.8959 -47.7128
v -34.3047 15.3037 -49.6496
v -35.3195 15.8959 -47.7128
v -36.5199 15.7747 -49.8438
v -37.0957 16.1583 -49.3397
v -35.3195 15.8959 -47.7128
v -36.5080 14.9703 -51.1875
v -36.5199 15.7747 -49.8438
v -33.5630 14.0834 -52.0860
v -32.8500 14.7448 -50.0297
v -32.1236 14.0369 -51.6061
v -32.8500 14.7448 -50.0297
v -33.5630 14.0834 -52.0860
v -34.3047 15.3037 -49.6496
v -35.5965 13.4835 -53.0297
v -34.3047 15.3037 -49.6496
v -33.5630 14.0834 -52.0860
v -34.3047 15.3037 -49.6496
v -35.5965 13.4835 -53.0297
v -36.5080 14.9703 -51.1875
v -37.6111 13.1252 -53.1520
v -36.5080 14.9703 -51.1875
v -35.5965 13.4835 -53.0297
v -36.5080 14.9703 -51.1875
v -37.6111 13.1252 -53.1520
v -38.8637 13.2547 -52.3480
v -36.5080 14.9703 -51.1875
v -38.8637 13.2547 -52.3480
v -37.5879 15.1014 -50.8563
v -39.0805 14.6618 -51.0875
v -37.5879 15.1014 -50.8563
v -38.8637 13.2547 -52.3480
v -38.8637 13.2547 -52.3480
v -40.6544 12.7551 -51.9898
v -39.0805 14.6618 -51.0875
v -40.8273 13.9158 -51.1388
v -39.0805 14.6618 -51.0875
v -40.6544 12.7551 -51.9898
v -32.1236 14.0369 -51.6061
v -32.5198 12.9548 -53.3466
v -33.5630 14.0834 -52.0860
v -34.0782 12.6288 -53.8857
v -33.5630 14.0834 -52.0860
v -32.5198 12.9548 -53.3466
v -33.5630 14.0834 -52.0860
v -34.0782 12.6288 -53.8857
v -35.5965 13.4835 -53.0297
v -44.8071 13.3220 -48.1071
v -45.3959 13.6940 -47.1661
v -43.9328 15.2485 -47.4767
v -38.8734 16.6406 -48.0842
v -36.7618 16.5057 -46.6287
v -37.8443 16.4728 -48.6708
v -43.0702 13.5295 -49.5197
v -43.7507 13.9356 -48.6563
v -42.0966 15.3315 -48.6334
v -39.0805 14.6618 -51.0875
v -37.0957 16.1583 -49.3397
v -37.5879 15.1014 -50.8563
v -37.0957 16.1583 -49.3397
v -39.0805 14.6618 -51.0875
v -38.7875 15.4970 -49.9965
v -42.2162 16.2300 -47.5355
v -43.9328 15.2485 -47.4767
v -42.3373 16.7730 -46.3439
vn 0.8520 0.2570 0.4561
vn 0.8520 0.2570 0.4561
vn 0.8520 0.2570 0.4561
vn 0.9841 -0.1393 0.1105
vn 0.9841 -0.1393 0.1105
vn 0.9841 -0.1393 0.1105
vn 0.9845 -0.1266 0.1217
vn 0.9845 -0.1266 0.1217
vn 0.9845 -0.1266 0.1217
vn 0.9316 -0.2443 0.2690
vn 0.9316 -0.2443 0.2690
vn 0.9316 -0.2443 0.2690
vn 0.9191 -0.1076 0.3790
vn 0.9191 -0.1076 0.3790
vn 0.9191 -0.1076 0.3790
vn 0.7313 0.5437 0.4119
vn 0.7313 0.5437 0.4119
vn 0.7313 0.5437 0.4119
vn 0.8266 0.4635 0.3193
vn 0.8266 0.4635 0.3193
vn 0.8266 0.4635 0.3193
vn 0.9544 0.2841 0.0921
vn 0.9544 0.2841 0.0921
vn 0.9544 0.2841 0.0921
vn 0.7049 -0.1729 -0.6879
vn 0.7049 -0.1729 -0.6879
vn 0.7049 -0.1729 -0.6879
vn 0.9234 0.2209 -0.3140
vn 0.9234 0.2209 -0.3140
vn 0.9234 0.2209 -0.3140
vn -0.1890 0.4933 -0.8491
vn -0.1890 0.4933 -0.8491
vn -0.1890 0.4933 -0.8491
vn 0.6486 -0.0714 -0.7577
vn 0.6486 -0.0714 -0.7577
vn 0.6486 -0.0714 -0.7577
vn 0.7507 0.6545 0.0895
vn 0.7507 0.6545 0.0895
vn 0.7507 0.6545 0.0895
vn -0.2868 0.6000 -0.7469
vn -0.2868 0.6000 -0.7469
vn -0.2868 0.6000 -0.7469
vn -0.3109 0.6590 -0.6849
vn -0.3109 0.6590 -0.6849
vn -0.3109 0.6590 -0.6849
vn 0.9241 -0.1370 -0.3568
vn 0.9241 -0.1370 -0.3568
vn 0.9241 -0.1370 -0.3568
vn 0.6165 0.1952 -0.7628
vn 0.6165 0.1952 -0.7628
vn 0.6165 0.1952 -0.7628
vn 0.7531 0.6518 0.0901
vn 0.7531 0.6518 0.0901
vn 0.7531 0.6518 0.0901
vn 0.9319 0.1131 0.3447
vn 0.9319 0.1131 0.3447
vn 0.9319 0.1131 0.3447
vn 0.8560 0.2452 0.4551
vn 0.8560 0.2452 0.4551
vn 0.8560 0.2452 0.4551
vn 0.9065 0.3635 0.2147
vn 0.9065 0.3635 0.2147
vn 0.9065 0.3635 0.2147
vn -0.2301 0.3342 -0.9140
vn -0.2301 0.3342 -0.9140
vn -0.2301 0.3342 -0.9140
vn 0.1574 0.0985 -0.9826
vn 0.1574 0.0985 -0.9826
vn 0.1574 0.0985 -0.9826
vn 0.0705 0.6124 -0.7874
vn 0.0705 0.6124 -0.7874
vn 0.0705 0.6124 -0.7874
vn 0.0499 0.4102 -0.9106
vn 0.0499 0.4102 -0.9106
vn 0.0499 0.4102 -0.9106
vn 0.3239 -0.1058 -0.9402
vn 0.3239 -0.1058 -0.9402
vn 0.3239 -0.1058 -0.9402
vn 0.7107 0.4598 0.5325
vn 0.7107 0.4598 0.5325
vn 0.7107 0.4598 0.5325
vn 0.8455 0.2854 0.4514
vn 0.8455 0.2854 0.4514
vn 0.8455 0.2854 0.4514
vn 0.7220 0.6828 0.1122
vn 0.7220 0.6828 0.1122
vn 0.7220 0.6828 0.1122
vn 0.6708 0.7097 0.2151
vn 0.6708 0.7097 0.2151
vn 0.6708 0.7097 0.2151
vn 0.7336 0.6149 0.2893
vn 0.7336 0.6149 0.2893
vn 0.7336 0.6149 0.2893
vn 0.4847 0.8574 -0.1730
vn 0.4847 0.8574 -0.1730
vn 0.4847 0.8574 -0.1730
vn 0.8622 0.4260 -0.2741
vn 0.8622 0.4260 -0.2741
vn 0.8622 0.4260 -0.2741
vn 0.9781 0.1330 -0.1601
vn 0.9781 0.1330 -0.1601
vn 0.9781 0.1330 -0.1601
vn -0.2092 0.2034 -0.9565
vn -0.2092 0.2034 -0.9565
vn -0.2092 0.2034 -0.9565
vn -0.2543 0.2766 -0.9267
vn -0.2543 0.2766 -0.9267
vn -0.2543 0.2766 -0.9267
vn 0.1410 0.4261 -0.8936
vn 0.1410 0.4261 -0.8936
vn 0.1410 0.4261 -0.8936
vn 0.1553 0.3563 -0.9214
vn 0.1553 0.3563 -0.9214
vn 0.1553 0.3563 -0.9214
vn 0.7894 0.6046 0.1058
vn 0.7894 0.6046 0.1058
vn 0.7894 0.6046 0.1058
vn 0.7981 0.5254 0.2951
vn 0.7981 0.5254 0.2951
vn 0.7981 0.5254 0.2951
vn 0.6963 0.5550 0.4552
vn 0.6963 0.5550 0.4552
vn 0.6963 0.5550 0.4552
vn 0.9692 0.1868 -0.1602
vn 0.9692 0.1868 -0.1602
vn 0.9692 0.1868 -0.1602
vn 0.8638 0.2595 0.4318
vn 0.8638 0.2595 0.4318
vn 0.8638 0.2595 0.4318
vn -0.2532 0.3081 -0.9170
vn -0.2532 0.3081 -0.9170
vn -0.2532 0.3081 -0.9170
vn 0.5342 -0.4986 -0.6827
vn 0.5342 -0.4986 -0.6827
vn 0.5342 -0.4986 -0.6827
vn 0.4969 0.0273 -0.8674
vn 0.4969 0.0273 -0.8674
vn 0.4969 0.0273 -0.8674
vn -0.3913 -0.1761 -0.9033
vn -0.3913 -0.1761 -0.9033
vn -0.3913 -0.1761 -0.9033
vn -0.0026 -0.3436 -0.9391
vn -0.0026 -0.3436 -0.9391
vn -0.0026 -0.3436 -0.9391
vn 0.1934 -0.3139 -0.9295
vn 0.1934 -0.3139 -0.9295
vn 0.1934 -0.3139 -0.9295
vn 0.0713 -0.2876 -0.9551
vn 0.0713 -0.2876 -0.9551
vn 0.0713 -0.2876 -0.9551
vn -0.9743 -0.1414 0.1756
vn -0.9743 -0.1414 0.1756
vn -0.9743 -0.1414 0.1756
vn -0.9572 0.1705 -0.2340
vn -0.9572 0.1705 -0.2340
vn -0.9572 0.1705 -0.2340
vn 0.0713 -0.2929 -0.9535
vn 0.0713 -0.2929 -0.9535
vn 0.0713 -0.2929 -0.9535
vn -0.2321 0.4837 0.8439
vn -0.2321 0.4837 0.8439
vn -0.2321 0.4837 0.8439
vn -0.2446 0.5001 0.8307
vn -0.2446 0.5001 0.8307
vn -0.2446 0.5001 0.8307
vn 0.5203 -0.4459 -0.7283
vn 0.5203 -0.4459 -0.7283
vn 0.5203 -0.4459 -0.7283
vn 0.5456 0.3373 -0.7671
vn 0.5456 0.3373 -0.7671
vn 0.5456 0.3373 -0.7671
vn 0.7786 0.0869 -0.6215
vn 0.7786 0.0869 -0.6215
vn 0.7786 0.0869 -0.6215
vn -0.9661 0.0706 -0.2484
vn -0.9661 0.0706 -0.2484
vn -0.9661 0.0706 -0.2484
vn 0.6763 0.7356 0.0402
vn 0.6763 0.7356 0.0402
vn 0.6763 0.7356 0.0402
vn 0.0980 0.8185 0.5661
vn 0.0980 0.8185 0.5661
vn 0.0980 0.8185 0.5661
vn 0.3340 0.6912 0.6409
vn 0.3340 0.6912 0.6409
vn 0.3340 0.6912 0.6409
vn -0.1637 0.6689 0.7251
vn -0.1637 0.6689 0.7251
vn -0.1637 0.6689 0.7251
vn 0.7260 0.6313 -0.2727
vn 0.7260 0.6313 -0.2727
vn 0.7260 0.6313 -0.2727
vn 0.6872 0.4950 -0.5317
vn 0.6872 0.4950 -0.5317
vn 0.6872 0.4950 -0.5317
vn 0.8048 0.5635 -0.1865
vn 0.8048 0.5635 -0.1865
vn 0.8048 0.5635 -0.1865
vn -0.1481 -0.6072 -0.7806
vn -0.1481 -0.6072 -0.7806
vn -0.1481 -0.6072 -0.7806
vn -0.2674 -0.5047 -0.8208
vn -0.2674 -0.5047 -0.8208
vn -0.2674 -0.5047 -0.8208
vn 0.5029 0.0191 -0.8641
vn 0.5029 0.0191 -0.8641
vn 0.5029 0.0191 -0.8641
vn 0.5615 0.8188 0.1196
vn 0.5615 0.8188 0.1196
vn 0.5615 0.8188 0.1196
vn 0.7532 0.6260 0.2020
vn 0.7532 0.6260 0.2020
vn 0.7532 0.6260 0.2020
vn 0.7367 0.6392 0.2209
vn 0.7367 0.6392 0.2209
vn 0.7367 0.6392 0.2209
vn 0.5270 0.8335 0.1661
vn 0.5270 0.8335 0.1661
vn 0.5270 0.8335 0.1661
vn 0.7764 0.6302 -0.0111
vn 0.7764 0.6302 -0.0111
vn 0.7764 0.6302 -0.0111
vn 0.7225 0.6792 -0.1289
vn 0.7225 0.6792 -0.1289
vn 0.7225 0.6792 -0.1289
vn 0.8826 0.4653 -0.0668
vn 0.8826 0.4653 -0.0668
vn 0.8826 0.4653 -0.0668
vn 0.7672 0.5866 0.2596
vn 0.7672 0.5866 0.2596
vn 0.7672 0.5866 0.2596
vn 0.8511 0.5227 -0.0493
vn 0.8511 0.5227 -0.0493
vn 0.8511 0.5227 -0.0493
vn 0.6527 0.7154 0.2496
vn 0.6527 0.7154 0.2496
vn 0.6527 0.7154 0.2496
vn 0.4448 0.6561 0.6097
vn 0.4448 0.6561 0.6097
vn 0.4448 0.6561 0.6097
vn 0.5979 0.5915 0.5409
vn 0.5979 0.5915 0.5409
vn 0.5979 0.5915 0.5409
vn 0.4619 -0.2039 -0.8632
vn 0.4619 -0.2039 -0.8632
vn 0.4619 -0.2039 -0.8632
vn 0.0311 -0.2991 -0.9537
vn 0.0311 -0.2991 -0.9537
vn 0.0311 -0.2991 -0.9537
vn -0.6742 0.4751 -0.5655
vn -0.6742 0.4751 -0.5655
vn -0.6742 0.4751 -0.5655
vn -0.1467 0.0844 -0.9856
vn -0.1467 0.0844 -0.9856
vn -0.1467 0.0844 -0.9856
vn 0.0801 0.1502 -0.9854
vn 0.0801 0.1502 -0.9854
vn 0.0801 0.1502 -0.9854
vn 0.2126 0.9696 0.1213
vn 0.2126 0.9696 0.1213
vn 0.2126 0.9696 0.1213
vn 0.6185 0.7856 0.0171
vn 0.6185 0.7856 0.0171
vn 0.6185 0.7856 0.0171
vn 0.3578 0.9338 -0.0035
vn 0.3578 0.9338 -0.0035
vn 0.3578 0.9338 -0.0035
vn -0.2506 0.2230 -0.9421
vn -0.2506 0.2230 -0.9421
vn -0.2506 0.2230 -0.9421
vn -0.4433 0.3767 -0.8134
vn -0.4433 0.3767 -0.8134
vn -0.4433 0.3767 -0.8134
vn -0.0217 0.4303 -0.9024
vn -0.0217 0.4303 -0.9024
vn -0.0217 0.4303 -0.9024
vn -0.1406 0.5274 -0.8379
vn -0.1406 0.5274 -0.8379
vn -0.1406 0.5274 -0.8379
vn -0.4315 0.5473 -0.7172
vn -0.4315 0.5473 -0.7172
vn -0.4315 0.5473 -0.7172
vn 0.2888 0.5843 -0.7584
vn 0.2888 0.5843 -0.7584
vn 0.2888 0.5843 -0.7584
vn 0.2172 0.4932 -0.8423
vn 0.2172 0.4932 -0.8423
vn 0.2172 0.4932 -0.8423
vn 0.3505 0.5658 -0.7464
vn 0.3505 0.5658 -0.7464
vn 0.3505 0.5658 -0.7464
vn 0.0076 0.4107 -0.9118
vn 0.0076 0.4107 -0.9118
vn 0.0076 0.4107 -0.9118
vn 0.1868 0.5028 -0.8440
vn 0.1868 0.5028 -0.8440
vn 0.1868 0.5028 -0.8440
vn 0.5139 0.8578 0.0069
vn 0.5139 0.8578 0.0069
vn 0.5139 0.8578 0.0069
vn 0.0437 0.9616 -0.2711
vn 0.0437 0.9616 -0.2711
vn 0.0437 0.9616 -0.2711
vn 0.3686 0.8930 -0.2584
vn 0.3686 0.8930 -0.2584
vn 0.3686 0.8930 -0.2584
vn 0.6320 0.6674 -0.3939
vn 0.6320 0.6674 -0.3939
vn 0.6320 0.6674 -0.3939
vn 0.1461 0.9259 -0.3485
vn 0.1461 0.9259 -0.3485
vn 0.1461 0.9259 -0.3485
vn 0.2462 0.8945 -0.3731
vn 0.2462 0.8945 -0.3731
vn 0.2462 0.8945 -0.3731
vn -0.0486 0.8871 -0.4591
vn -0.0486 0.8871 -0.4591
vn -0.0486 0.8871 -0.4591
vn 0.2481 0.8102 -0.5311
vn 0.2481 0.8102 -0.5311
vn 0.2481 0.8102 -0.5311
vn -0.0940 0.7515 -0.6530
vn -0.0940 0.7515 -0.6530
vn -0.0940 0.7515 -0.6530
vn -0.2839 0.7733 -0.5669
vn -0.2839 0.7733 -0.5669
vn -0.2839 0.7733 -0.5669
vn -0.1389 0.6786 -0.7213
vn -0.1389 0.6786 -0.7213
vn -0.1389 0.6786 -0.7213
vn -0.0780 0.6585 -0.7485
vn -0.0780 0.6585 -0.7485
vn -0.0780 0.6585 -0.7485
vn -0.3152 0.6058 -0.7305
vn -0.3152 0.6058 -0.7305
vn -0.3152 0.6058 -0.7305
vn -0.2142 0.5566 -0.8027
vn -0.2142 0.5566 -0.8027
vn -0.2142 0.5566 -0.8027
vn 0.2096 0.8083 -0.5502
vn 0.2096 0.8083 -0.5502
vn 0.2096 0.8083 -0.5502
vn 0.0600 0.7679 -0.6378
vn 0.0600 0.7679 -0.6378
vn 0.0600 0.7679 -0.6378
vn 0.0707 0.7658 -0.6392
vn 0.0707 0.7658 -0.6392
vn 0.0707 0.7658 -0.6392
vn -0.6419 0.4855 -0.5935
vn -0.6419 0.4855 -0.5935
vn -0.6419 0.4855 -0.5935
vn 0.1170 0.9901 -0.0780
vn 0.1170 0.9901 -0.0780
vn 0.1170 0.9901 -0.0780
vn -0.4825 0.5825 -0.6542
vn -0.4825 0.5825 -0.6542
vn -0.4825 0.5825 -0.6542
vn -0.1637 0.8335 -0.5277
vn -0.1637 0.8335 -0.5277
vn -0.1637 0.8335 -0.5277
vn -0.0839 0.8020 -0.5914
vn -0.0839 0.8020 -0.5914
vn -0.0839 0.8020 -0.5914
vn -0.4641 0.7873 -0.4059
vn -0.4641 0.7873 -0.4059
vn -0.4641 0.7873 -0.4059
f 1//1 2//2 3//3
f 4//4 5//5 6//6
f 7//7 8//8 9//9
f 10//10 11//11 12//12
f 13//13 14//14 15//15
f 16//16 17//17 18//18
f 19//19 20//20 21//21
f 22//22 23//23 24//24
f 25//25 26//26 27//27
f 28//28 29//29 30//30
f 31//31 32//32 33//33
f 34//34 35//35 36//36
f 37//37 38//38 39//39
f 40//40 41//41 42//42
f 43//43 44//44 45//45
f 46//46 47//47 48//48
f 49//49 50//50 51//51
f 52//52 53//53 54//54
f 55//55 56//56 57//57
f 58//58 59//59 60//60
f 61//61 62//62 63//63
f 64//64 65//65 66//66
f 67//67 68//68 69//69
f 70//70 71//71 72//72
f 73//73 74//74 75//75
f 76//76 77//77 78//78
f 79//79 80//80 81//81
f 82//82 83//83 84//84
f 85//85 86//86 87//87
f 88//88 89//89 90//90
f 91//91 92//92 93//93
f 94//94 95//95 96//96
f 97//97 98//98 99//99
f 100//100 101//101 102//102
f 103//103 104//104 105//105
f 106//106 107//107 108//108
f 109//109 110//110 111//111
f 112//112 113//113 114//114
f 115//115 116//116 117//117
f 118//118 119//119 120//120
f 121//121 122//122 123//123
f 124//124 125//125 126//126
f 127//127 128//128 129//129
f 130//130 131//131 132//132
f 133//133 134//134 135//135
f 136//136 137//137 138//138
f 139//139 140//140 141//141
f 142//142 143//143 144//144
f 145//145 146//146 147//147
f 148//148 149//149 150//150
f 151//151 152//152 153//153
f 154//154 155//155 156//156
f 157//157 158//158 159//159
f 160//160 161//161 162//162
f 163//163 164//164 165//165
f 166//166 167//167 168//168
f 169//169 170//170 171//171
f 172//172 173//173 174//174
f 175//175 176//176 177//177
f 178//178 179//179 180//180
f 181//181 182//182 183//183
f 184//184 185//185 186//186
f 187//187 188//188 189//189
f 190//190 191//191 192//192
f 193//193 194//194 195//195
f 196//196 197//197 198//198
f 199//199 200//200 201//201
f 202//202 203//203 204//204
f 205//205 206//206 207//207
f 208//208 209//209 210//210
f 211//211 212//212 213//213
f 214//214 215//215 216//216
f 217//217 218//218 219//219
f 220//220 221//221 222//222
f 223//223 224//224 225//225
f 226//226 227//227 228//228
f 229//229 230//230 231//231
f 232//232 233//233 234//234
f 235//235 236//236 237//237
f 238//238 239//239 240//240
f 241//241 242//242 243//243
f 244//244 245//245 246//246
f 247//247 248//248 249//249
f 250//250 251//251 252//252
f 253//253 254//254 255//255
f 256//256 257//257 258//258
f 259//259 260//260 261//261
f 262//262 263//263 264//264
f 265//265 266//266 267//267
f 268//268 269//269 270//270
f 271//271 272//272 273//273
f 274//274 275//275 276//276
f 277//277 278//278 279//279
f 280//280 281//281 282//282
f 283//283 284//284 285//285
f 286//286 287//287 288//288
f 289//289 290//290 291//291
f 292//292 293//293 294//294
f 295//295 296//296 297//297
f 298//298 299//299 300//300
f 301//301 302//302 303//303
f 304//304 305//305 306//306
f 307//307 308//308 309//309
f 310//310 311//311 312//312
f 313//313 314//314 315//315
f 316//316 317//317 318//318
f 319//319 320//320 321//321
f 322//322 323//323 324//324
f 325//325 326//326 327//327
f 328//328 329//329 330//330
f 331//331 332//332 333//333
f 334//334 335//335 336//336
f 337//337 338//338 339//339
f 340//340 341//341 342//342
f 343//343 344//344 345//345
f 346//346 347//347 348//348
f 349//349 350//350 351//351
f 352//352 353//353 354//354
f 355//355 356//356 357//357
f 358//358 359//359 360//360
f 361//361 362//362 363//363
f 364//364 365//365 366//366
