o 
v -1.1847 6.5792 11.0530
v -1.0630 7.5658 10.5936
v -0.8151 7.8192 11.7704
v -0.2051 9.1939 12.5935
v -0.0897 9.3550 13.7482
v -0.1956 8.0989 13.0220
v -0.1956 8.0989 13.0220
v -0.8151 7.8192 11.7704
v -0.2051 9.1939 12.5935
v -0.6939 8.8164 11.2713
v -0.2051 9.1939 12.5935
v -0.8151 7.8192 11.7704
v -0.8151 7.8192 11.7704
v -1.0630 7.5658 10.5936
v -0.6939 8.8164 11.2713
v -1.0512 8.5505 10.1237
v -0.6939 8.8164 11.2713
v -1.0630 7.5658 10.5936
v -0.8501 9.2943 14.7897
v -1.9542 9.9861 14.5890
v -2.5516 9.5232 15.3339
v -2.5516 9.5232 15.3339
v -3.3619 10.0681 14.7454
v -4.1114 9.5933 15.7603
v -4.8372 9.8849 14.9148
v -4.1114 9.5933 15.7603
v -3.3619 10.0681 14.7454
v -4.1114 9.5933 15.7603
v -4.8372 9.8849 14.9148
v -5.5577 9.1671 15.9300
v -6.0976 9.7566 14.6875
v -5.5577 9.1671 15.9300
v -4.8372 9.8849 14.9148
v -5.5577 9.1671 15.9300
v -6.0976 9.7566 14.6875
v -6.8363 9.2441 15.3840
v -0.0897 9.3550 13.7482
v -0.2051 9.1939 12.5935
v -0.5151 10.2607 13.1627
v -0.2051 9.1939 12.5935
v -0.6939 8.8164 11.2713
v -0.7567 10.0829 11.9593
v -0.2051 9.1939 12.5935
v -0.7567 10.0829 11.9593
v -0.5151 10.2607 13.1627
v -0.6939 8.8164 11.2713
v -1.0512 8.5505 10.1237
v -0.6325 9.7384 10.7019
v -0.6939 8.8164 11.2713
v -0.6325 9.7384 10.7019
v -0.7567 10.0829 11.9593
v -1.0637 11.2353 12.5852
v -1.6558 10.9151 13.4627
v -0.5151 10.2607 13.1627
v -0.5151 10.2607 13.1627
v -0.7567 10.0829 11.9593
v -1.0637 11.2353 12.5852
v -0.7567 10.0829 11.9593
v -0.6325 9.7384 10.7019
v -0.8713 11.0348 11.4279
v -0.7994 10.7121 10.1806
v -0.8713 11.0348 11.4279
v -0.6325 9.7384 10.7019
v -1.6558 10.9151 13.4627
v -1.0637 11.2353 12.5852
v -2.7591 12.0005 12.8878
v -6.1534 12.3085 13.9744
v -5.8062 11.0985 13.9123
v -5.0577 11.8724 13.6880
v -1.0637 11.2353 12.5852
v -0.8713 11.0348 11.4279
v -1.4769 12.1562 11.9361
v -1.0637 11.2353 12.5852
v -1.4769 12.1562 11.9361
v -2.7591 12.0005 12.8878
v -0.8713 11.0348 11.4279
v -0.7994 10.7121 10.1806
v -0.8293 11.9590 10.8177
v -0.8713 11.0348 11.4279
v -0.8293 11.9590 10.8177
v -1.4769 12.1562 11.9361
v -0.7994 10.7121 10.1806
v -0.6597 11.6751 9.5919
v -0.8293 11.9590 10.8177
v -4.1558 12.5726 13.6951
v -3.7591 11.5564 13.6277
v -2.7591 12.0005 12.8878
v -2.7591 12.0005 12.8878
v -3.7226 13.0070 12.9399
v -4.1558 12.5726 13.6951
v -2.7591 12.0005 12.8878
v -1.4769 12.1562 11.9361
v -2.8593 13.0624 12.2261
v -1.4769 12.1562 11.9361
v -0.8293 11.9590 10.8177
v -1.7406 12.9747 11.1723
v -1.4769 12.1562 11.9361
v -1.7406 12.9747 11.1723
v -2.8593 13.0624 12.2261
v -0.8293 11.9590 10.8177
v -0.6597 11.6751 9.5919
v -0.6210 12.8514 10.1042
v -0.8293 11.9590 10.8177
v -0.6210 12.8514 10.1042
v -1.7406 12.9747 11.1723
v -0.6597 11.6751 9.5919
v -0.4234 12.6408 8.9895
v -0.6210 12.8514 10.1042
v -2.1910 11.8103 5.1832
v -1.6130 11.5400 6.8757
v -2.4270 11.3652 5.1858
v -2.8593 13.0624 12.2261
v -2.7002 13.6885 11.3992
v -3.7136 14.2232 11.9212
v -2.1096 13.9793 10.5103
v -2.7002 13.6885 11.3992
v -1.7406 12.9747 11.1723
v -1.7406 12.9747 11.1723
v -0.6210 12.8514 10.1042
v -2.1096 13.9793 10.5103
v -0.7535 13.7624 9.3700
v -2.1096 13.9793 10.5103
v -0.6210 12.8514 10.1042
v -0.6210 12.8514 10.1042
v -0.4234 12.6408 8.9895
v -0.7535 13.7624 9.3700
v -2.1910 11.8103 5.1832
v -2.2832 12.1739 5.0455
v -1.1410 12.4302 6.8704
v -2.4566 12.2711 5.1361
v -1.1410 12.4302 6.8704
v -2.2832 12.1739 5.0455
v -1.1410 12.4302 6.8704
v -2.4566 12.2711 5.1361
v -2.0962 12.9377 4.9042
v -1.9718 13.3343 4.6731
v -0.4200 13.7635 6.4066
v -2.0962 12.9377 4.9042
v -1.3682 13.2993 4.3325
v -1.1991 13.6655 4.0142
v -0.0805 15.1140 5.6767
v -1.3682 13.2993 4.3325
v -0.0805 15.1140 5.6767
v -1.7529 13.5158 4.4487
v -1.7529 13.5158 4.4487
v -1.7984 13.2371 4.5825
v -0.1714 14.5566 5.9444
v -1.7984 13.2371 4.5825
v -0.1714 14.5566 5.9444
v -1.9718 13.3343 4.6731
v -2.1096 13.9793 10.5103
v -0.7535 13.7624 9.3700
v -2.2401 14.8226 9.7642
v -0.7535 13.7624 9.3700
v -0.3378 13.5570 8.3461
v -0.9360 14.7491 8.4815
v -0.7535 13.7624 9.3700
v -0.9360 14.7491 8.4815
v -2.2401 14.8226 9.7642
v -1.1991 13.6655 4.0142
v -1.3296 14.0459 3.8688
v -0.0805 15.1140 5.6767
v -0.0601 15.4681 5.5969
v -1.3092 14.4000 3.7890
v -0.0397 15.8222 5.5171
v -0.0397 15.8222 5.5171
v -1.3092 14.4000 3.7890
v -1.1907 14.7512 3.4858
v -2.2401 14.8226 9.7642
v -0.9360 14.7491 8.4815
v -2.1222 15.4632 8.9496
v -1.1832 15.2956 3.3694
v -1.2226 15.6283 3.1889
v -0.0247 16.9111 5.2843
v -1.1832 15.2956 3.3694
v -1.1907 14.7512 3.4858
v -0.0397 15.8222 5.5171
v -1.2226 15.6283 3.1889
v -1.2619 15.8939 3.0895
v -0.0247 16.9111 5.2843
v -0.0247 16.9111 5.2843
v -1.2619 15.8939 3.0895
v -1.3997 16.5063 2.9018
v -0.3003 18.1360 4.9091
v -1.3997 16.5063 2.9018
v -1.2414 16.6837 2.6407
v -1.2414 16.6837 2.6407
v -1.2806 17.0329 2.4456
v -0.3003 18.1360 4.9091
v -0.2947 18.8746 4.4564
v -1.2778 17.4022 2.2193
v -1.2806 17.0329 2.4456
v -1.2778 17.4022 2.2193
v -1.2961 17.7684 1.9794
v -0.2947 18.8746 4.4564
v -0.1406 19.5335 4.0135
v -1.2190 18.0979 1.7579
v -1.2961 17.7684 1.9794
v -1.2190 18.0979 1.7579
v -1.3457 18.4165 1.7012
v -0.1406 19.5335 4.0135
v -0.3761 20.4557 3.2852
v -1.4634 18.8777 1.3370
v -1.3457 18.4165 1.7012
v -1.4634 18.8777 1.3370
v -1.3758 19.1204 1.0753
v -0.3761 20.4557 3.2852
v -0.4065 21.0378 2.4848
v -1.3910 19.4115 0.6752
v -1.3758 19.1204 1.0753
v -1.3910 19.4115 0.6752
v -1.4227 19.7786 0.4423
v -0.4065 21.0378 2.4848
v -0.5365 21.4736 1.7818
v -1.4877 19.9965 0.0908
v -1.4227 19.7786 0.4423
v -1.6140 20.2196 -0.0104
v -1.4877 19.9965 0.0908
v -0.5365 21.4736 1.7818
v -1.6140 20.2196 -0.0104
v -1.5310 20.4355 -0.2692
v -0.7890 21.9198 1.5794
v -1.6498 20.5885 -0.2926
v -0.7890 21.9198 1.5794
v -1.5310 20.4355 -0.2692
v -1.0267 22.2259 1.5325
v -1.6498 20.5885 -0.2926
v -1.4580 20.6121 -0.6156
v -1.4580 20.6121 -0.6156
v -1.5693 20.9088 -0.7413
v -1.0267 22.2259 1.5325
v -1.7856 21.2052 -0.6092
v -1.0267 22.2259 1.5325
v -1.5693 20.9088 -0.7413
v -1.0267 22.2259 1.5325
v -1.7856 21.2052 -0.6092
v -1.8537 21.5083 -0.6708
v -1.9975 22.0319 -0.8953
v -1.1629 22.8320 1.4093
v -1.8537 21.5083 -0.6708
v -2.4015 22.4535 4.4794
v -1.2518 22.5751 3.4233
v -1.9975 22.0319 -0.8953
v -2.0049 22.3436 -1.1356
v -1.4505 23.8793 0.9602
v -1.5846 24.4846 0.2403
v -2.0720 22.6462 -1.4956
v -2.0049 22.3436 -1.1356
v -2.0720 22.6462 -1.4956
v -2.0962 22.9914 -1.7151
v -1.5846 24.4846 0.2403
v -1.5193 25.0482 -0.4441
v -2.0636 23.2732 -2.0573
v -2.0962 22.9914 -1.7151
v -1.9856 23.5230 -2.2647
v -2.0636 23.2732 -2.0573
v -1.5193 25.0482 -0.4441
v -1.9856 23.5230 -2.2647
v -1.9462 23.7361 -2.4517
v -1.3635 25.5478 -0.8590
v -1.9829 24.0258 -2.5905
v -1.3635 25.5478 -0.8590
v -1.9462 23.7361 -2.4517
v -1.7111 23.8553 -2.8903
v -1.7287 24.3136 -2.9617
v -1.4369 26.1272 -1.1365
v -1.7111 23.8553 -2.8903
v -1.4369 26.1272 -1.1365
v -1.9829 24.0258 -2.5905
v -5.1273 25.1594 2.3999
v -4.5942 24.2510 2.6780
v -3.6497 25.0870 2.5068
v -4.5942 24.2510 2.6780
v -5.1273 25.1594 2.3999
v -5.8200 24.1389 2.2706
v -6.3999 25.0362 2.1642
v -5.8200 24.1389 2.2706
v -5.1273 25.1594 2.3999
v -2.2733 24.9823 1.9685
v -2.9289 25.8550 1.7211
v -3.6497 25.0870 2.5068
v -3.6497 25.0870 2.5068
v -2.9289 25.8550 1.7211
v -4.3934 26.1276 1.7959
v -3.6497 25.0870 2.5068
v -4.3934 26.1276 1.7959
v -5.1273 25.1594 2.3999
v -5.1273 25.1594 2.3999
v -4.3934 26.1276 1.7959
v -5.8361 25.8728 1.8803
v -1.7287 24.3136 -2.9617
v -1.9559 24.6652 -2.9739
v -1.4369 26.1272 -1.1365
v -1.4369 26.1272 -1.1365
v -1.9559 24.6652 -2.9739
v -2.0030 25.1739 -3.1523
v -2.3171 26.2383 0.7288
v -3.0547 27.3793 0.3977
v -3.4391 26.6357 1.2323
v -2.0030 25.1739 -3.1523
v -2.1370 25.4503 -3.2376
v -1.5312 27.1447 -1.4933
v -1.5312 27.1447 -1.4933
v -2.1370 25.4503 -3.2376
v -2.2412 26.0194 -3.5991
v -2.0598 25.9654 -3.7995
v -2.0829 26.2283 -4.0941
v -1.7397 28.2830 -2.2164
v -2.0598 25.9654 -3.7995
v -1.7397 28.2830 -2.2164
v -2.2412 26.0194 -3.5991
v -2.0829 26.2283 -4.0941
v -2.2318 26.4999 -4.1497
v -1.7397 28.2830 -2.2164
v -1.7397 28.2830 -2.2164
v -2.2318 26.4999 -4.1497
v -2.3850 26.9909 -4.5305
v -2.2756 27.0302 -4.8386
v -2.3994 27.3345 -4.9435
v -2.0461 29.2652 -2.9779
v -2.2756 27.0302 -4.8386
v -2.0461 29.2652 -2.9779
v -2.3850 26.9909 -4.5305
v -2.3994 27.3345 -4.9435
v -2.4621 27.5327 -5.0378
v -2.0461 29.2652 -2.9779
v -2.4621 27.5327 -5.0378
v -2.6792 28.0486 -5.5766
v -2.4801 30.2969 -4.0555
v -2.4801 30.2969 -4.0555
v -2.6792 28.0486 -5.5766
v -2.6521 28.1913 -5.7884
v -3.4348 30.1688 -4.8963
v -2.9221 29.4785 -3.0440
v -2.2299 29.2727 -3.4625
v -2.2299 29.2727 -3.4625
v -2.4801 30.2969 -4.0555
v -3.4348 30.1688 -4.8963
v -3.0766 31.4542 -5.5552
v -3.4348 30.1688 -4.8963
v -2.4801 30.2969 -4.0555
v -2.6521 28.1913 -5.7884
v -2.5723 28.3722 -6.1522
v -2.4801 30.2969 -4.0555
v -2.7918 28.6659 -6.0608
v -2.4801 30.2969 -4.0555
v -2.5723 28.3722 -6.1522
v -2.7918 28.6659 -6.0608
v -3.0900 29.2445 -6.8106
v -3.0766 31.4542 -5.5552
v -3.1409 29.7159 -7.5300
v -3.0766 31.4542 -5.5552
v -3.0900 29.2445 -6.8106
v -3.1783 32.3969 -6.9938
v -3.1409 29.7159 -7.5300
v -2.9973 29.7244 -7.8348
v -3.3944 29.2464 -2.6817
v -4.0455 30.1322 -3.7771
v -4.3146 29.3859 -2.4804
v -5.1781 30.2701 -3.4596
v -4.3146 29.3859 -2.4804
v -4.0455 30.1322 -3.7771
v -4.3146 29.3859 -2.4804
v -5.1781 30.2701 -3.4596
v -5.5254 29.7136 -2.6080
v -2.9221 29.4785 -3.0440
v -3.4348 30.1688 -4.8963
v -4.0455 30.1322 -3.7771
v -4.0455 30.1322 -3.7771
v -4.9384 30.7511 -4.4458
v -5.1781 30.2701 -3.4596
v -2.9973 29.7244 -7.8348
v -3.0526 29.9049 -8.2388
v -3.1783 32.3969 -6.9938
v -3.2325 32.7202 -8.0580
v -3.0796 30.0665 -8.7709
v -3.0526 29.9049 -8.2388
v -3.0689 30.2812 -9.3185
v -3.1529 30.6053 -9.7398
v -3.2110 33.1496 -9.1532
v -3.0689 30.2812 -9.3185
v -3.0796 30.0665 -8.7709
v -3.2325 32.7202 -8.0580
v -4.6115 30.9426 -5.5233
v -4.3954 31.8222 -6.7031
v -5.4686 31.4952 -6.3360
v -3.1018 30.7367 -10.3118
v -3.0955 30.8328 -10.6025
v -3.1086 33.4123 -10.2972
v -3.1018 30.7367 -10.3118
v -3.1529 30.6053 -9.7398
v -3.2110 33.1496 -9.1532
v -3.0955 30.8328 -10.6025
v -3.1786 30.9991 -10.7394
v -3.1086 33.4123 -10.2972
v -3.1086 33.4123 -10.2972
v -3.1786 30.9991 -10.7394
v -3.1936 31.1228 -11.2488
v -3.1279 30.9996 -11.4848
v -3.2757 31.2488 -11.6748
v -3.1384 33.6598 -11.3159
v -3.1279 30.9996 -11.4848
v -3.1384 33.6598 -11.3159
v -3.1936 31.1228 -11.2488
v -3.2757 31.2488 -11.6748
v -3.0547 33.5534 -12.0693
v -3.1384 33.6598 -11.3159
v -7.5142 31.9345 -7.5323
v -8.7174 31.7731 -7.1135
v -8.3313 32.4250 -8.3049
vn 0.9674 -0.1947 -0.1618
vn 0.9674 -0.1947 -0.1618
vn 0.9674 -0.1947 -0.1618
vn 0.9950 -0.0287 -0.0954
vn 0.9950 -0.0287 -0.0954
vn 0.9950 -0.0287 -0.0954
vn 0.8988 -0.1529 -0.4107
vn 0.8988 -0.1529 -0.4107
vn 0.8988 -0.1529 -0.4107
vn 0.9293 -0.2493 -0.2724
vn 0.9293 -0.2493 -0.2724
vn 0.9293 -0.2493 -0.2724
vn 0.9669 -0.1981 -0.1610
vn 0.9669 -0.1981 -0.1610
vn 0.9669 -0.1981 -0.1610
vn 0.9543 -0.1379 -0.2651
vn 0.9543 -0.1379 -0.2651
vn 0.9543 -0.1379 -0.2651
vn 0.3048 0.6799 0.6670
vn 0.3048 0.6799 0.6670
vn 0.3048 0.6799 0.6670
vn 0.1804 0.8331 0.5229
vn 0.1804 0.8331 0.5229
vn 0.1804 0.8331 0.5229
vn -0.0710 0.9226 0.3792
vn -0.0710 0.9226 0.3792
vn -0.0710 0.9226 0.3792
vn -0.1989 0.8612 0.4678
vn -0.1989 0.8612 0.4678
vn -0.1989 0.8612 0.4678
vn -0.1745 0.8581 0.4829
vn -0.1745 0.8581 0.4829
vn -0.1745 0.8581 0.4829
vn -0.1514 0.8660 0.4766
vn -0.1514 0.8660 0.4766
vn -0.1514 0.8660 0.4766
vn 0.9280 0.3448 -0.1408
vn 0.9280 0.3448 -0.1408
vn 0.9280 0.3448 -0.1408
vn 0.8790 0.2605 -0.3994
vn 0.8790 0.2605 -0.3994
vn 0.8790 0.2605 -0.3994
vn 0.8921 0.3852 -0.2360
vn 0.8921 0.3852 -0.2360
vn 0.8921 0.3852 -0.2360
vn 0.9456 -0.2142 -0.2448
vn 0.9456 -0.2142 -0.2448
vn 0.9456 -0.2142 -0.2448
vn 0.9950 -0.0048 0.0996
vn 0.9950 -0.0048 0.0996
vn 0.9950 -0.0048 0.0996
vn 0.5151 0.6326 0.5784
vn 0.5151 0.6326 0.5784
vn 0.5151 0.6326 0.5784
vn 0.8999 0.3673 -0.2350
vn 0.8999 0.3673 -0.2350
vn 0.8999 0.3673 -0.2350
vn 0.9870 0.1502 0.0564
vn 0.9870 0.1502 0.0564
vn 0.9870 0.1502 0.0564
vn 0.9845 0.1749 0.0115
vn 0.9845 0.1749 0.0115
vn 0.9845 0.1749 0.0115
vn 0.4233 0.7209 0.5487
vn 0.4233 0.7209 0.5487
vn 0.4233 0.7209 0.5487
vn 0.2624 0.0257 0.9646
vn 0.2624 0.0257 0.9646
vn 0.2624 0.0257 0.9646
vn 0.8907 0.4492 0.0703
vn 0.8907 0.4492 0.0703
vn 0.8907 0.4492 0.0703
vn 0.4056 0.6412 0.6514
vn 0.4056 0.6412 0.6514
vn 0.4056 0.6412 0.6514
vn 0.9982 -0.0063 0.0591
vn 0.9982 -0.0063 0.0591
vn 0.9982 -0.0063 0.0591
vn 0.8551 0.2580 0.4496
vn 0.8551 0.2580 0.4496
vn 0.8551 0.2580 0.4496
vn 0.9875 -0.0523 0.1487
vn 0.9875 -0.0523 0.1487
vn 0.9875 -0.0523 0.1487
vn 0.5416 0.1567 0.8259
vn 0.5416 0.1567 0.8259
vn 0.5416 0.1567 0.8259
vn 0.5770 0.5198 0.6300
vn 0.5770 0.5198 0.6300
vn 0.5770 0.5198 0.6300
vn 0.4776 0.4966 0.7247
vn 0.4776 0.4966 0.7247
vn 0.4776 0.4966 0.7247
vn 0.7560 0.5599 0.3390
vn 0.7560 0.5599 0.3390
vn 0.7560 0.5599 0.3390
vn 0.5419 0.6601 0.5203
vn 0.5419 0.6601 0.5203
vn 0.5419 0.6601 0.5203
vn 0.9820 -0.1018 0.1594
vn 0.9820 -0.1018 0.1594
vn 0.9820 -0.1018 0.1594
vn 0.6630 0.3670 0.6525
vn 0.6630 0.3670 0.6525
vn 0.6630 0.3670 0.6525
vn 0.9739 -0.1169 0.1947
vn 0.9739 -0.1169 0.1947
vn 0.9739 -0.1169 0.1947
vn 0.8260 -0.4400 -0.3524
vn 0.8260 -0.4400 -0.3524
vn 0.8260 -0.4400 -0.3524
vn 0.5935 0.5827 0.5552
vn 0.5935 0.5827 0.5552
vn 0.5935 0.5827 0.5552
vn 0.5721 0.5874 0.5724
vn 0.5721 0.5874 0.5724
vn 0.5721 0.5874 0.5724
vn 0.5934 0.5834 0.5546
vn 0.5934 0.5834 0.5546
vn 0.5934 0.5834 0.5546
vn 0.5842 0.5591 0.5883
vn 0.5842 0.5591 0.5883
vn 0.5842 0.5591 0.5883
vn 0.9625 0.2408 0.1251
vn 0.9625 0.2408 0.1251
vn 0.9625 0.2408 0.1251
vn 0.8467 0.0132 -0.5318
vn 0.8467 0.0132 -0.5318
vn 0.8467 0.0132 -0.5318
vn 0.3254 0.8868 -0.3282
vn 0.3254 0.8868 -0.3282
vn 0.3254 0.8868 -0.3282
vn 0.6934 -0.5406 -0.4764
vn 0.6934 -0.5406 -0.4764
vn 0.6934 -0.5406 -0.4764
vn 0.6996 -0.5106 -0.4998
vn 0.6996 -0.5106 -0.4998
vn 0.6996 -0.5106 -0.4998
vn 0.8518 -0.5073 -0.1311
vn 0.8518 -0.5073 -0.1311
vn 0.8518 -0.5073 -0.1311
vn -0.0676 -0.5625 0.8240
vn -0.0676 -0.5625 0.8240
vn -0.0676 -0.5625 0.8240
vn 0.7552 -0.3798 -0.5343
vn 0.7552 -0.3798 -0.5343
vn 0.7552 -0.3798 -0.5343
vn -0.0236 -0.7038 0.7100
vn -0.0236 -0.7038 0.7100
vn -0.0236 -0.7038 0.7100
vn 0.5723 0.5913 0.5682
vn 0.5723 0.5913 0.5682
vn 0.5723 0.5913 0.5682
vn 0.8720 0.4066 0.2725
vn 0.8720 0.4066 0.2725
vn 0.8720 0.4066 0.2725
vn 0.5764 0.6031 0.5514
vn 0.5764 0.6031 0.5514
vn 0.5764 0.6031 0.5514
vn 0.8070 0.0521 -0.5883
vn 0.8070 0.0521 -0.5883
vn 0.8070 0.0521 -0.5883
vn 0.8539 -0.1607 -0.4950
vn 0.8539 -0.1607 -0.4950
vn 0.8539 -0.1607 -0.4950
vn 0.8470 -0.4811 -0.2262
vn 0.8470 -0.4811 -0.2262
vn 0.8470 -0.4811 -0.2262
vn 0.5788 0.5982 0.5542
vn 0.5788 0.5982 0.5542
vn 0.5788 0.5982 0.5542
vn 0.8928 -0.1286 -0.4317
vn 0.8928 -0.1286 -0.4317
vn 0.8928 -0.1286 -0.4317
vn 0.8883 -0.1077 -0.4465
vn 0.8883 -0.1077 -0.4465
vn 0.8883 -0.1077 -0.4465
vn 0.8794 -0.0472 -0.4738
vn 0.8794 -0.0472 -0.4738
vn 0.8794 -0.0472 -0.4738
vn 0.8625 0.0395 -0.5045
vn 0.8625 0.0395 -0.5045
vn 0.8625 0.0395 -0.5045
vn 0.7893 -0.6107 0.0635
vn 0.7893 -0.6107 0.0635
vn 0.7893 -0.6107 0.0635
vn 0.9381 -0.0826 -0.3363
vn 0.9381 -0.0826 -0.3363
vn 0.9381 -0.0826 -0.3363
vn 0.9387 -0.1851 -0.2907
vn 0.9387 -0.1851 -0.2907
vn 0.9387 -0.1851 -0.2907
vn 0.9380 -0.1560 -0.3095
vn 0.9380 -0.1560 -0.3095
vn 0.9380 -0.1560 -0.3095
vn 0.9112 -0.3544 -0.2101
vn 0.9112 -0.3544 -0.2101
vn 0.9112 -0.3544 -0.2101
vn 0.8139 0.2282 -0.5344
vn 0.8139 0.2282 -0.5344
vn 0.8139 0.2282 -0.5344
vn 0.9015 -0.1019 -0.4206
vn 0.9015 -0.1019 -0.4206
vn 0.9015 -0.1019 -0.4206
vn 0.8825 -0.4534 -0.1252
vn 0.8825 -0.4534 -0.1252
vn 0.8825 -0.4534 -0.1252
vn 0.9258 -0.2881 -0.2447
vn 0.9258 -0.2881 -0.2447
vn 0.9258 -0.2881 -0.2447
vn 0.9190 -0.1514 -0.3639
vn 0.9190 -0.1514 -0.3639
vn 0.9190 -0.1514 -0.3639
vn 0.9203 -0.2327 -0.3144
vn 0.9203 -0.2327 -0.3144
vn 0.9203 -0.2327 -0.3144
vn 0.7851 0.1747 -0.5942
vn 0.7851 0.1747 -0.5942
vn 0.7851 0.1747 -0.5942
vn 0.9141 -0.4032 -0.0431
vn 0.9141 -0.4032 -0.0431
vn 0.9141 -0.4032 -0.0431
vn 0.6685 0.4255 -0.6100
vn 0.6685 0.4255 -0.6100
vn 0.6685 0.4255 -0.6100
vn 0.6737 -0.6494 0.3526
vn 0.6737 -0.6494 0.3526
vn 0.6737 -0.6494 0.3526
vn 0.9196 0.2024 -0.3367
vn 0.9196 0.2024 -0.3367
vn 0.9196 0.2024 -0.3367
vn 0.5713 0.6437 -0.5092
vn 0.5713 0.6437 -0.5092
vn 0.5713 0.6437 -0.5092
vn 0.9142 0.1274 -0.3847
vn 0.9142 0.1274 -0.3847
vn 0.9142 0.1274 -0.3847
vn 0.9248 0.0960 -0.3682
vn 0.9248 0.0960 -0.3682
vn 0.9248 0.0960 -0.3682
vn 0 0 0
vn 0 0 0
vn 0.9779 -0.1125 -0.1763
vn 0.9779 -0.1125 -0.1763
vn 0.9779 -0.1125 -0.1763
vn 0.9738 -0.0484 -0.2222
vn 0.9738 -0.0484 -0.2222
vn 0.9738 -0.0484 -0.2222
vn 0.9763 -0.0633 -0.2071
vn 0.9763 -0.0633 -0.2071
vn 0.9763 -0.0633 -0.2071
vn 0.9719 -0.2187 -0.0873
vn 0.9719 -0.2187 -0.0873
vn 0.9719 -0.2187 -0.0873
vn 0.9553 -0.2956 0.0029
vn 0.9553 -0.2956 0.0029
vn 0.9553 -0.2956 0.0029
vn 0.9666 -0.2449 -0.0751
vn 0.9666 -0.2449 -0.0751
vn 0.9666 -0.2449 -0.0751
vn 0.9492 -0.0298 -0.3134
vn 0.9492 -0.0298 -0.3134
vn 0.9492 -0.0298 -0.3134
vn 0.9856 0.0115 -0.1690
vn 0.9856 0.0115 -0.1690
vn 0.9856 0.0115 -0.1690
vn 0.4029 -0.5893 0.7003
vn 0.4029 -0.5893 0.7003
vn 0.4029 -0.5893 0.7003
vn -0.0569 0.2615 0.9635
vn -0.0569 0.2615 0.9635
vn -0.0569 0.2615 0.9635
vn -0.3220 0.0992 0.9415
vn -0.3220 0.0992 0.9415
vn -0.3220 0.0992 0.9415
vn -0.1821 -0.0011 0.9833
vn -0.1821 -0.0011 0.9833
vn -0.1821 -0.0011 0.9833
vn 0.3496 0.4892 0.7990
vn 0.3496 0.4892 0.7990
vn 0.3496 0.4892 0.7990
vn 0.1562 0.6309 0.7600
vn 0.1562 0.6309 0.7600
vn 0.1562 0.6309 0.7600
vn -0.0336 0.5473 0.8363
vn -0.0336 0.5473 0.8363
vn -0.0336 0.5473 0.8363
vn -0.0495 0.5554 0.8301
vn -0.0495 0.5554 0.8301
vn -0.0495 0.5554 0.8301
vn 0.7098 0.4397 -0.5503
vn 0.7098 0.4397 -0.5503
vn 0.7098 0.4397 -0.5503
vn 0.9633 -0.0048 -0.2683
vn 0.9633 -0.0048 -0.2683
vn 0.9633 -0.0048 -0.2683
vn 0.4962 0.5221 0.6937
vn 0.4962 0.5221 0.6937
vn 0.4962 0.5221 0.6937
vn 0.8218 0.2387 -0.5173
vn 0.8218 0.2387 -0.5173
vn 0.8218 0.2387 -0.5173
vn 0.9509 -0.0220 -0.3089
vn 0.9509 -0.0220 -0.3089
vn 0.9509 -0.0220 -0.3089
vn 0.9909 -0.0521 -0.1241
vn 0.9909 -0.0521 -0.1241
vn 0.9909 -0.0521 -0.1241
vn 0.5595 -0.5188 0.6464
vn 0.5595 -0.5188 0.6464
vn 0.5595 -0.5188 0.6464
vn 0.7947 0.3318 -0.5083
vn 0.7947 0.3318 -0.5083
vn 0.7947 0.3318 -0.5083
vn 0.9516 0.0636 -0.3008
vn 0.9516 0.0636 -0.3008
vn 0.9516 0.0636 -0.3008
vn 0.8931 0.2301 -0.3866
vn 0.8931 0.2301 -0.3866
vn 0.8931 0.2301 -0.3866
vn 0.9034 -0.3253 0.2793
vn 0.9034 -0.3253 0.2793
vn 0.9034 -0.3253 0.2793
vn 0.9380 0.1475 -0.3136
vn 0.9380 0.1475 -0.3136
vn 0.9380 0.1475 -0.3136
vn 0.9535 0.1065 -0.2821
vn 0.9535 0.1065 -0.2821
vn 0.9535 0.1065 -0.2821
vn 0.9918 -0.1192 0.0464
vn 0.9918 -0.1192 0.0464
vn 0.9918 -0.1192 0.0464
vn 0.3984 0.8901 0.2214
vn 0.3984 0.8901 0.2214
vn 0.3984 0.8901 0.2214
vn -0.6586 0.2500 0.7097
vn -0.6586 0.2500 0.7097
vn -0.6586 0.2500 0.7097
vn -0.6125 0.4891 0.6210
vn -0.6125 0.4891 0.6210
vn -0.6125 0.4891 0.6210
vn 0.9756 -0.1815 0.1238
vn 0.9756 -0.1815 0.1238
vn 0.9756 -0.1815 0.1238
vn 0.5608 0.5975 -0.5731
vn 0.5608 0.5975 -0.5731
vn 0.5608 0.5975 -0.5731
vn 0.9528 0.1456 -0.2665
vn 0.9528 0.1456 -0.2665
vn 0.9528 0.1456 -0.2665
vn 0.9982 0.0248 -0.0543
vn 0.9982 0.0248 -0.0543
vn 0.9982 0.0248 -0.0543
vn 0.9031 -0.0720 0.4233
vn 0.9031 -0.0720 0.4233
vn 0.9031 -0.0720 0.4233
vn 0.2382 0.8196 0.5211
vn 0.2382 0.8196 0.5211
vn 0.2382 0.8196 0.5211
vn 0.2456 0.8172 0.5213
vn 0.2456 0.8172 0.5213
vn 0.2456 0.8172 0.5213
vn 0.1542 0.7971 0.5838
vn 0.1542 0.7971 0.5838
vn 0.1542 0.7971 0.5838
vn 0.3716 0.8989 0.2322
vn 0.3716 0.8989 0.2322
vn 0.3716 0.8989 0.2322
vn 0.2357 0.8497 0.4717
vn 0.2357 0.8497 0.4717
vn 0.2357 0.8497 0.4717
vn 0.9911 0.0962 -0.0925
vn 0.9911 0.0962 -0.0925
vn 0.9911 0.0962 -0.0925
vn 0.9974 0.0657 -0.0308
vn 0.9974 0.0657 -0.0308
vn 0.9974 0.0657 -0.0308
vn 0.9866 0.0577 -0.1525
vn 0.9866 0.0577 -0.1525
vn 0.9866 0.0577 -0.1525
vn 0.9982 0.0472 0.0382
vn 0.9982 0.0472 0.0382
vn 0.9982 0.0472 0.0382
vn -0.0426 0.8047 0.5921
vn -0.0426 0.8047 0.5921
vn -0.0426 0.8047 0.5921
vn 0.9998 0.0024 0.0222
vn 0.9998 0.0024 0.0222
vn 0.9998 0.0024 0.0222
vn 0.9960 0.0021 0.0896
vn 0.9960 0.0021 0.0896
vn 0.9960 0.0021 0.0896
vn 0.8837 0.0594 -0.4642
vn 0.8837 0.0594 -0.4642
vn 0.8837 0.0594 -0.4642
vn 0.9991 -0.0226 -0.0348
vn 0.9991 -0.0226 -0.0348
vn 0.9991 -0.0226 -0.0348
vn 0.8134 0.0401 -0.5803
vn 0.8134 0.0401 -0.5803
vn 0.8134 0.0401 -0.5803
vn 0.9615 -0.0136 0.2744
vn 0.9615 -0.0136 0.2744
vn 0.9615 -0.0136 0.2744
vn 0.9899 -0.0743 0.1206
vn 0.9899 -0.0743 0.1206
vn 0.9899 -0.0743 0.1206
vn -0.0551 -0.8683 -0.4929
vn -0.0551 -0.8683 -0.4929
vn -0.0551 -0.8683 -0.4929
f 1//1 2//2 3//3
f 4//4 5//5 6//6
f 7//7 8//8 9//9
f 10//10 11//11 12//12
f 13//13 14//14 15//15
f 16//16 17//17 18//18
f 19//19 20//20 21//21
f 22//22 23//23 24//24
f 25//25 26//26 27//27
f 28//28 29//29 30//30
f 31//31 32//32 33//33
f 34//34 35//35 36//36
f 37//37 38//38 39//39
f 40//40 41//41 42//42
f 43//43 44//44 45//45
f 46//46 47//47 48//48
f 49//49 50//50 51//51
f 52//52 53//53 54//54
f 55//55 56//56 57//57
f 58//58 59//59 60//60
f 61//61 62//62 63//63
f 64//64 65//65 66//66
f 67//67 68//68 69//69
f 70//70 71//71 72//72
f 73//73 74//74 75//75
f 76//76 77//77 78//78
f 79//79 80//80 81//81
f 82//82 83//83 84//84
f 85//85 86//86 87//87
f 88//88 89//89 90//90
f 91//91 92//92 93//93
f 94//94 95//95 96//96
f 97//97 98//98 99//99
f 100//100 101//101 102//102
f 103//103 104//104 105//105
f 106//106 107//107 108//108
f 109//109 110//110 111//111
f 112//112 113//113 114//114
f 115//115 116//116 117//117
f 118//118 119//119 120//120
f 121//121 122//122 123//123
f 124//124 125//125 126//126
f 127//127 128//128 129//129
f 130//130 131//131 132//132
f 133//133 134//134 135//135
f 136//136 137//137 138//138
f 139//139 140//140 141//141
f 142//142 143//143 144//144
f 146//146 145//145 147//147
f 148//148 149//149 150//150
f 151//151 152//152 153//153
f 154//154 155//155 156//156
f 157//157 158//158 159//159
f 160//160 161//161 162//162
f 163//163 164//164 165//165
f 166//166 167//167 168//168
f 169//169 170//170 171//171
f 172//172 173//173 174//174
f 176//176 175//175 177//177
f 178//178 179//179 180//180
f 181//181 182//182 183//183
f 184//184 185//185 186//186
f 187//187 188//188 189//189
f 190//190 192//192 191//191
f 193//193 194//194 195//195
f 196//196 198//198 197//197
f 199//199 200//200 201//201
f 202//202 204//204 203//203
f 205//205 206//206 207//207
f 208//208 210//210 209//209
f 211//211 212//212 213//213
f 214//214 216//216 215//215
f 218//218 217//217 219//219
f 220//220 221//221 222//222
f 223//223 224//224 225//225
f 226//226 227//227 228//228
f 229//229 230//230 231//231
f 232//232 233//233 234//234
f 235//235 236//236 237//237
f 238//238 239//239 240//240
f 243//243 244//244 245//245
f 246//246 248//248 247//247
f 249//249 250//250 251//251
f 252//252 254//254 253//253
f 256//256 255//255 257//257
f 258//258 259//259 260//260
f 261//261 262//262 263//263
f 264//264 265//265 266//266
f 267//267 268//268 269//269
f 270//270 271//271 272//272
f 273//273 274//274 275//275
f 276//276 277//277 278//278
f 279//279 280//280 281//281
f 282//282 283//283 284//284
f 285//285 286//286 287//287
f 288//288 289//289 290//290
f 291//291 292//292 293//293
f 294//294 295//295 296//296
f 297//297 298//298 299//299
f 300//300 301//301 302//302
f 303//303 304//304 305//305
f 306//306 307//307 308//308
f 309//309 310//310 311//311
f 312//312 313//313 314//314
f 315//315 316//316 317//317
f 318//318 319//319 320//320
f 321//321 322//322 323//323
f 324//324 325//325 326//326
f 327//327 328//328 329//329
f 330//330 331//331 332//332
f 333//333 334//334 335//335
f 336//336 337//337 338//338
f 339//339 340//340 341//341
f 342//342 343//343 344//344
f 345//345 346//346 347//347
f 348//348 349//349 350//350
f 351//351 352//352 353//353
f 354//354 355//355 356//356
f 357//357 358//358 359//359
f 360//360 361//361 362//362
f 363//363 364//364 365//365
f 366//366 367//367 368//368
f 369//369 370//370 371//371
f 372//372 373//373 374//374
f 375//375 377//377 376//376
f 378//378 379//379 380//380
f 382//382 381//381 383//383
f 384//384 385//385 386//386
f 387//387 388//388 389//389
f 391//391 390//390 392//392
f 393//393 394//394 395//395
f 396//396 397//397 398//398
f 399//399 400//400 401//401
f 402//402 403//403 404//404
f 405//405 406//406 407//407
f 408//408 409//409 410//410
