o 
v -39.3946 -26.3381 1.8252
v -39.3999 -28.0823 1.5290
v -38.4847 -27.0152 2.2060
v -41.1790 -27.2182 0.5815
v -40.5123 -28.1472 1.1298
v -40.3628 -26.6058 1.1373
v -35.6606 -26.2762 4.7112
v -35.5630 -24.8506 4.8728
v -36.4712 -25.0971 4.7114
v -37.4617 -26.4488 2.8616
v -38.5951 -25.8567 2.6346
v -38.4847 -27.0152 2.2060
v -37.4617 -26.4488 2.8616
v -38.0927 -25.1532 3.5753
v -38.5951 -25.8567 2.6346
v -38.5951 -25.8567 2.6346
v -39.3946 -26.3381 1.8252
v -38.4847 -27.0152 2.2060
v -38.5951 -25.8567 2.6346
v -38.0927 -25.1532 3.5753
v -39.3822 -24.8946 2.8390
v -39.3946 -26.3381 1.8252
v -40.3271 -25.1772 2.1591
v -40.3628 -26.6058 1.1373
v -40.3628 -26.6058 1.1373
v -40.3271 -25.1772 2.1591
v -41.1792 -25.6456 1.0415
v -40.3628 -26.6058 1.1373
v -41.1792 -25.6456 1.0415
v -41.1790 -27.2182 0.5815
v -37.2642 -25.0869 4.3100
v -36.6652 -23.5790 4.3981
v -37.7305 -23.5507 4.0143
v -38.0927 -25.1532 3.5753
v -38.6386 -24.1147 3.5496
v -39.3822 -24.8946 2.8390
v -39.3822 -24.8946 2.8390
v -38.6386 -24.1147 3.5496
v -39.6093 -23.2953 3.1142
v -40.3271 -25.1772 2.1591
v -41.1530 -24.5704 1.9810
v -41.1792 -25.6456 1.0415
v -41.1792 -25.6456 1.0415
v -41.1530 -24.5704 1.9810
v -41.9578 -24.5133 1.2986
v -36.6098 -21.8417 3.8728
v -36.6652 -23.5790 4.3981
v -35.7553 -21.9710 3.8070
v -36.6652 -23.5790 4.3981
v -36.6098 -21.8417 3.8728
v -37.7305 -23.5507 4.0143
v -37.7139 -21.6242 4.0260
v -37.7305 -23.5507 4.0143
v -36.6098 -21.8417 3.8728
v -37.7305 -23.5507 4.0143
v -38.4951 -22.6080 3.6348
v -38.6386 -24.1147 3.5496
v -37.7305 -23.5507 4.0143
v -37.7139 -21.6242 4.0260
v -38.4951 -22.6080 3.6348
v -38.4951 -22.6080 3.6348
v -39.6093 -23.2953 3.1142
v -38.6386 -24.1147 3.5496
v -40.1458 -22.3207 2.9969
v -39.6093 -23.2953 3.1142
v -39.4953 -21.4365 3.6456
v -35.0057 -21.9004 3.8884
v -34.8059 -20.9224 2.4240
v -35.7553 -21.9710 3.8070
v -35.5277 -20.9001 2.4711
v -35.7553 -21.9710 3.8070
v -34.8059 -20.9224 2.4240
v -35.7553 -21.9710 3.8070
v -35.5277 -20.9001 2.4711
v -36.6098 -21.8417 3.8728
v -36.1556 -20.0304 -0.8475
v -36.3013 -20.0584 0.7635
v -35.4940 -20.3307 -0.8188
v -37.7546 -19.8411 2.3981
v -37.7726 -20.7297 3.5392
v -36.6817 -20.5064 2.3767
v -37.7726 -20.7297 3.5392
v -37.7546 -19.8411 2.3981
v -38.7945 -20.6713 3.1559
v -39.1047 -19.8000 2.5863
v -38.7945 -20.6713 3.1559
v -37.7546 -19.8411 2.3981
v -36.6817 -20.5064 2.3767
v -36.3013 -20.0584 0.7635
v -37.7546 -19.8411 2.3981
v -37.1221 -19.6321 0.4876
v -37.7546 -19.8411 2.3981
v -36.3013 -20.0584 0.7635
v -37.7546 -19.8411 2.3981
v -38.3320 -19.2447 1.5970
v -39.1047 -19.8000 2.5863
v -37.7546 -19.8411 2.3981
v -37.1221 -19.6321 0.4876
v -38.3320 -19.2447 1.5970
v -37.7240 -19.3545 -0.1788
v -38.3320 -19.2447 1.5970
v -37.1221 -19.6321 0.4876
v -36.3013 -20.0584 0.7635
v -36.1556 -20.0304 -0.8475
v -37.1221 -19.6321 0.4876
v -36.7640 -19.7396 -1.1731
v -37.1221 -19.6321 0.4876
v -36.1556 -20.0304 -0.8475
v -37.1221 -19.6321 0.4876
v -36.7640 -19.7396 -1.1731
v -37.7240 -19.3545 -0.1788
v -38.3320 -19.2447 1.5970
v -37.7240 -19.3545 -0.1788
v -38.8445 -19.0440 0.6279
v -38.3320 -19.2447 1.5970
v -38.8445 -19.0440 0.6279
v -39.5307 -19.3065 1.9616
v -37.7240 -19.3545 -0.1788
v -38.1942 -19.2115 -1.0961
v -38.8445 -19.0440 0.6279
v -38.8445 -19.0440 0.6279
v -38.1942 -19.2115 -1.0961
v -39.2646 -18.8424 -0.4216
v -38.8445 -19.0440 0.6279
v -39.2646 -18.8424 -0.4216
v -39.9237 -18.8626 1.0966
v -38.1942 -19.2115 -1.0961
v -37.6085 -19.6774 -2.8255
v -38.6545 -19.2866 -2.1070
v -38.1942 -19.2115 -1.0961
v -38.6545 -19.2866 -2.1070
v -39.2646 -18.8424 -0.4216
v -39.2646 -18.8424 -0.4216
v -38.6545 -19.2866 -2.1070
v -39.6203 -18.9487 -1.6118
v -39.2646 -18.8424 -0.4216
v -39.6203 -18.9487 -1.6118
v -40.3004 -18.6963 -0.0070
v -41.8126 -19.4738 1.2032
v -41.2954 -18.7854 0.1814
v -42.4351 -18.9475 0.2920
v -41.8126 -19.4738 1.2032
v -42.4351 -18.9475 0.2920
v -42.8952 -20.0276 0.8628
v -42.8952 -20.0276 0.8628
v -42.4351 -18.9475 0.2920
v -43.7231 -19.7988 0.2901
v -40.3004 -18.6963 -0.0070
v -39.6203 -18.9487 -1.6118
v -40.6331 -18.6423 -1.2273
v -39.0261 -19.2228 -3.0875
v -39.2580 -19.1840 -4.4652
v -39.8525 -18.8756 -2.7120
v -46.9753 -18.1856 -2.6796
v -46.4537 -19.3461 -2.1459
v -46.5299 -17.9719 -1.6408
v -41.3032 -18.1446 -2.1066
v -40.4043 -18.4737 -3.6430
v -41.1590 -17.5196 -2.8798
v -42.3510 -17.7155 -1.5281
v -41.1590 -17.5196 -2.8798
v -42.4345 -16.9489 -2.1801
v -42.3510 -17.7155 -1.5281
v -42.4345 -16.9489 -2.1801
v -43.6239 -17.5156 -1.1106
v -40.4043 -18.4737 -3.6430
v -40.6631 -17.9897 -4.4028
v -41.1590 -17.5196 -2.8798
v -41.1590 -17.5196 -2.8798
v -40.6631 -17.9897 -4.4028
v -41.2452 -16.6787 -3.9256
v -41.1590 -17.5196 -2.8798
v -41.2452 -16.6787 -3.9256
v -42.4345 -16.9489 -2.1801
v -46.8814 -16.7433 -3.0236
v -46.9753 -18.1856 -2.6796
v -46.5099 -16.9712 -2.1636
v -40.6631 -17.9897 -4.4028
v -40.7787 -17.8280 -5.5416
v -41.2452 -16.6787 -3.9256
v -41.1345 -16.6422 -5.4601
v -41.2452 -16.6787 -3.9256
v -40.7787 -17.8280 -5.5416
v -40.7787 -17.8280 -5.5416
v -40.8950 -18.1440 -7.1972
v -41.1345 -16.6422 -5.4601
v -41.4695 -17.0506 -6.6454
v -41.1345 -16.6422 -5.4601
v -40.8950 -18.1440 -7.1972
v -42.0387 -16.8608 -8.5269
v -41.7602 -16.5924 -7.2470
v -41.4508 -17.7608 -8.6580
v -43.6239 -17.5156 -1.1106
v -42.4345 -16.9489 -2.1801
v -44.1851 -16.7402 -1.4675
v -42.4761 -15.9077 -2.9172
v -44.1851 -16.7402 -1.4675
v -42.4345 -16.9489 -2.1801
v -44.1851 -16.7402 -1.4675
v -43.7780 -16.1350 -2.6465
v -45.0491 -16.3971 -1.7144
v -44.1851 -16.7402 -1.4675
v -42.4761 -15.9077 -2.9172
v -43.7780 -16.1350 -2.6465
v -42.8624 -15.3081 -3.6476
v -43.7780 -16.1350 -2.6465
v -42.4761 -15.9077 -2.9172
v -42.4345 -16.9489 -2.1801
v -41.2452 -16.6787 -3.9256
v -42.4761 -15.9077 -2.9172
v -42.0303 -15.8655 -4.4909
v -42.4761 -15.9077 -2.9172
v -41.2452 -16.6787 -3.9256
v -42.4761 -15.9077 -2.9172
v -42.0303 -15.8655 -4.4909
v -42.8624 -15.3081 -3.6476
v -46.5099 -16.9712 -2.1636
v -45.6442 -16.4929 -2.0110
v -45.4737 -15.5954 -3.2015
v -46.5099 -16.9712 -2.1636
v -45.4737 -15.5954 -3.2015
v -46.8814 -16.7433 -3.0236
v -41.2452 -16.6787 -3.9256
v -41.1345 -16.6422 -5.4601
v -42.0303 -15.8655 -4.4909
v -46.8814 -16.7433 -3.0236
v -45.4737 -15.5954 -3.2015
v -46.6354 -15.6817 -3.7256
v -41.6807 -15.8877 -5.7353
v -41.7602 -16.5924 -7.2470
v -42.1248 -15.3116 -6.1646
v -42.2390 -15.8729 -7.5184
v -42.1248 -15.3116 -6.1646
v -41.7602 -16.5924 -7.2470
v -43.1243 -15.7354 -9.6658
v -42.5822 -15.5297 -8.2476
v -42.4957 -16.7210 -9.7552
v -44.3659 -15.7924 -2.9321
v -42.8624 -15.3081 -3.6476
v -42.3932 -15.1171 -4.9822
v -43.4285 -14.7287 -4.1900
v -42.8624 -15.3081 -3.6476
v -43.4285 -14.7287 -4.1900
v -44.3659 -15.7924 -2.9321
v -44.3659 -15.7924 -2.9321
v -43.4285 -14.7287 -4.1900
v -45.4737 -15.5954 -3.2015
v -44.3659 -15.7924 -2.9321
v -45.4737 -15.5954 -3.2015
v -45.6442 -16.4929 -2.0110
v -43.4285 -14.7287 -4.1900
v -44.3335 -14.6140 -4.2952
v -45.4737 -15.5954 -3.2015
v -45.4152 -14.7000 -4.0059
v -45.4737 -15.5954 -3.2015
v -44.3335 -14.6140 -4.2952
v -45.4737 -15.5954 -3.2015
v -45.4152 -14.7000 -4.0059
v -46.6354 -15.6817 -3.7256
v -42.6308 -14.8671 -6.7177
v -42.5822 -15.5297 -8.2476
v -43.0832 -14.4027 -7.0872
v -42.5822 -15.5297 -8.2476
v -43.1243 -15.7354 -9.6658
v -43.2453 -14.9592 -8.3058
v -43.1243 -15.7354 -9.6658
v -43.8288 -14.6801 -8.9425
v -43.2453 -14.9592 -8.3058
v -49.7463 -14.3135 -6.2363
v -49.3034 -15.2743 -5.8465
v -48.8027 -13.7721 -5.3938
v -46.9976 -14.4660 -4.5269
v -46.3296 -13.1175 -5.0636
v -47.6274 -14.1862 -4.7777
v -47.0731 -12.7574 -5.1637
v -47.6274 -14.1862 -4.7777
v -46.3296 -13.1175 -5.0636
v -43.9745 -13.6176 -9.0131
v -44.0548 -13.7111 -7.6677
v -43.8288 -14.6801 -8.9425
v -48.8027 -13.7721 -5.3938
v -48.4157 -12.2600 -5.4688
v -49.4318 -12.7309 -5.7898
v -48.8027 -13.7721 -5.3938
v -49.4318 -12.7309 -5.7898
v -49.7463 -14.3135 -6.2363
v -46.3296 -13.1175 -5.0636
v -45.8466 -12.1096 -6.1490
v -47.0731 -12.7574 -5.1637
v -44.5773 -12.7761 -9.1206
v -44.3270 -12.9463 -7.8556
v -43.9745 -13.6176 -9.0131
v -47.0731 -12.7574 -5.1637
v -45.8466 -12.1096 -6.1490
v -46.6679 -11.4961 -5.6523
v -44.6359 -12.1508 -7.5857
v -45.3445 -11.5944 -7.4324
v -45.8466 -12.1096 -6.1490
v -44.5773 -12.7761 -9.1206
v -44.7123 -12.2024 -10.2138
v -44.6989 -11.7655 -8.7035
v -47.5132 -11.1575 -5.4856
v -46.6550 -10.5145 -6.5732
v -47.7886 -10.1842 -6.0611
v -44.7123 -12.2024 -10.2138
v -45.0933 -12.0807 -11.7222
v -45.0354 -11.3321 -10.5647
v -46.6550 -10.5145 -6.5732
v -45.9461 -11.1818 -6.5956
v -45.6353 -10.9147 -8.0027
v -45.6353 -10.9147 -8.0027
v -46.3004 -9.8336 -7.7078
v -46.6550 -10.5145 -6.5732
v -45.6353 -10.9147 -8.0027
v -44.9675 -10.9153 -9.6720
v -45.9109 -10.4238 -8.7827
v -46.6550 -10.5145 -6.5732
v -47.0553 -9.5865 -7.2266
v -47.7886 -10.1842 -6.0611
v -49.5487 -10.3582 -6.1109
v -48.7945 -9.1589 -6.5759
v -50.0676 -9.2570 -6.2356
v -48.7945 -9.1589 -6.5759
v -49.1598 -8.3987 -7.2075
v -50.0676 -9.2570 -6.2356
v -49.1598 -8.3987 -7.2075
v -48.5290 -7.9770 -8.3620
v -49.7788 -7.7125 -7.6930
vn -0.4725 -0.1462 0.8691
vn -0.4725 -0.1462 0.8691
vn -0.4725 -0.1462 0.8691
vn -0.5890 0.0532 0.8063
vn -0.5890 0.0532 0.8063
vn -0.5890 0.0532 0.8063
vn -0.1472 -0.1015 0.9839
vn -0.1472 -0.1015 0.9839
vn -0.1472 -0.1015 0.9839
vn -0.3579 -0.3538 0.8641
vn -0.3579 -0.3538 0.8641
vn -0.3579 -0.3538 0.8641
vn -0.4429 -0.5883 0.6766
vn -0.4429 -0.5883 0.6766
vn -0.4429 -0.5883 0.6766
vn -0.5642 -0.3332 0.7554
vn -0.5642 -0.3332 0.7554
vn -0.5642 -0.3332 0.7554
vn -0.4949 -0.5481 0.6743
vn -0.4949 -0.5481 0.6743
vn -0.4949 -0.5481 0.6743
vn -0.3892 -0.5295 0.7538
vn -0.3892 -0.5295 0.7538
vn -0.3892 -0.5295 0.7538
vn -0.6080 -0.4518 0.6529
vn -0.6080 -0.4518 0.6529
vn -0.6080 -0.4518 0.6529
vn -0.4049 -0.2567 0.8776
vn -0.4049 -0.2567 0.8776
vn -0.4049 -0.2567 0.8776
vn -0.3360 0.0787 0.9386
vn -0.3360 0.0787 0.9386
vn -0.3360 0.0787 0.9386
vn -0.5174 -0.2518 0.8178
vn -0.5174 -0.2518 0.8178
vn -0.5174 -0.2518 0.8178
vn -0.5460 -0.2168 0.8093
vn -0.5460 -0.2168 0.8093
vn -0.5460 -0.2168 0.8093
vn -0.5396 -0.5465 0.6404
vn -0.5396 -0.5465 0.6404
vn -0.5396 -0.5465 0.6404
vn -0.5688 -0.5333 0.6262
vn -0.5688 -0.5333 0.6262
vn -0.5688 -0.5333 0.6262
vn 0.1163 0.2840 0.9517
vn 0.1163 0.2840 0.9517
vn 0.1163 0.2840 0.9517
vn -0.3183 0.2836 0.9046
vn -0.3183 0.2836 0.9046
vn -0.3183 0.2836 0.9046
vn 0.1360 -0.0072 0.9907
vn 0.1360 -0.0072 0.9907
vn 0.1360 -0.0072 0.9907
vn -0.4519 -0.0074 0.8920
vn -0.4519 -0.0074 0.8920
vn -0.4519 -0.0074 0.8920
vn -0.4462 -0.0016 0.8950
vn -0.4462 -0.0016 0.8950
vn -0.4462 -0.0016 0.8950
vn -0.4174 -0.0116 0.9086
vn -0.4174 -0.0116 0.9086
vn -0.4174 -0.0116 0.9086
vn -0.5420 -0.2001 0.8162
vn -0.5420 -0.2001 0.8162
vn -0.5420 -0.2001 0.8162
vn -0.1367 0.8323 0.5372
vn -0.1367 0.8323 0.5372
vn -0.1367 0.8323 0.5372
vn 0.0652 0.7731 0.6309
vn 0.0652 0.7731 0.6309
vn 0.0652 0.7731 0.6309
vn 0.1632 0.7560 0.6339
vn 0.1632 0.7560 0.6339
vn 0.1632 0.7560 0.6339
vn 0.4108 0.9102 0.0530
vn 0.4108 0.9102 0.0530
vn 0.4108 0.9102 0.0530
vn 0.4466 0.7025 0.5541
vn 0.4466 0.7025 0.5541
vn 0.4466 0.7025 0.5541
vn -0.1815 0.7773 0.6024
vn -0.1815 0.7773 0.6024
vn -0.1815 0.7773 0.6024
vn 0.1302 0.5746 0.8080
vn 0.1302 0.5746 0.8080
vn 0.1302 0.5746 0.8080
vn 0.5006 0.7965 0.3392
vn 0.5006 0.7965 0.3392
vn 0.5006 0.7965 0.3392
vn 0.3880 0.8934 0.2262
vn 0.3880 0.8934 0.2262
vn 0.3880 0.8934 0.2262
vn 0.1015 0.8316 0.5460
vn 0.1015 0.8316 0.5460
vn 0.1015 0.8316 0.5460
vn 0.4996 0.8275 0.2560
vn 0.4996 0.8275 0.2560
vn 0.4996 0.8275 0.2560
vn 0.3578 0.9316 0.0649
vn 0.3578 0.9316 0.0649
vn 0.3578 0.9316 0.0649
vn 0.4454 0.8936 0.0558
vn 0.4454 0.8936 0.0558
vn 0.4454 0.8936 0.0558
vn 0.4174 0.9082 0.0312
vn 0.4174 0.9082 0.0312
vn 0.4174 0.9082 0.0312
vn 0.3951 0.9183 0.0257
vn 0.3951 0.9183 0.0257
vn 0.3951 0.9183 0.0257
vn 0.2947 0.9547 0.0419
vn 0.2947 0.9547 0.0419
vn 0.2947 0.9547 0.0419
vn 0.0097 0.9802 0.1979
vn 0.0097 0.9802 0.1979
vn 0.0097 0.9802 0.1979
vn 0.2735 0.9618 0.0097
vn 0.2735 0.9618 0.0097
vn 0.2735 0.9618 0.0097
vn 0.3484 0.9365 0.0404
vn 0.3484 0.9365 0.0404
vn 0.3484 0.9365 0.0404
vn 0.2083 0.9726 0.1034
vn 0.2083 0.9726 0.1034
vn 0.2083 0.9726 0.1034
vn 0.2348 0.9556 -0.1779
vn 0.2348 0.9556 -0.1779
vn 0.2348 0.9556 -0.1779
vn 0.2222 0.9596 -0.1725
vn 0.2222 0.9596 -0.1725
vn 0.2222 0.9596 -0.1725
vn 0.2517 0.9544 -0.1605
vn 0.2517 0.9544 -0.1605
vn 0.2517 0.9544 -0.1605
vn 0.0930 0.9889 -0.1161
vn 0.0930 0.9889 -0.1161
vn 0.0930 0.9889 -0.1161
vn -0.0682 0.8431 0.5335
vn -0.0682 0.8431 0.5335
vn -0.0682 0.8431 0.5335
vn -0.4956 0.5614 0.6628
vn -0.4956 0.5614 0.6628
vn -0.4956 0.5614 0.6628
vn -0.3659 0.5519 0.7494
vn -0.3659 0.5519 0.7494
vn -0.3659 0.5519 0.7494
vn 0.2778 0.9601 -0.0333
vn 0.2778 0.9601 -0.0333
vn 0.2778 0.9601 -0.0333
vn 0.3728 0.9272 -0.0367
vn 0.3728 0.9272 -0.0367
vn 0.3728 0.9272 -0.0367
vn -0.8840 -0.2037 0.4209
vn -0.8840 -0.2037 0.4209
vn -0.8840 -0.2037 0.4209
vn 0.8441 0.3290 0.4234
vn 0.8441 0.3290 0.4234
vn 0.8441 0.3290 0.4234
vn 0.5766 0.5649 0.5903
vn 0.5766 0.5649 0.5903
vn 0.5766 0.5649 0.5903
vn 0.3293 0.6323 0.7013
vn 0.3293 0.6323 0.7013
vn 0.3293 0.6323 0.7013
vn 0.8143 0.5737 0.0880
vn 0.8143 0.5737 0.0880
vn 0.8143 0.5737 0.0880
vn 0.9207 0.3376 0.1955
vn 0.9207 0.3376 0.1955
vn 0.9207 0.3376 0.1955
vn 0.5653 0.6650 0.4881
vn 0.5653 0.6650 0.4881
vn 0.5653 0.6650 0.4881
vn -0.8901 0.1597 0.4268
vn -0.8901 0.1597 0.4268
vn -0.8901 0.1597 0.4268
vn 0.9089 0.4157 -0.0332
vn 0.9089 0.4157 -0.0332
vn 0.9089 0.4157 -0.0332
vn 0.9565 0.2818 0.0757
vn 0.9565 0.2818 0.0757
vn 0.9565 0.2818 0.0757
vn 0.9482 0.2930 -0.1225
vn 0.9482 0.2930 -0.1225
vn 0.9482 0.2930 -0.1225
vn 0.7127 0.5763 -0.3999
vn 0.7127 0.5763 -0.3999
vn 0.7127 0.5763 -0.3999
vn 0.7825 0.5529 -0.2862
vn 0.7825 0.5529 -0.2862
vn 0.7825 0.5529 -0.2862
vn 0.3631 0.5935 0.7183
vn 0.3631 0.5935 0.7183
vn 0.3631 0.5935 0.7183
vn 0.3708 0.5464 0.7510
vn 0.3708 0.5464 0.7510
vn 0.3708 0.5464 0.7510
vn 0.1925 0.8444 0.4999
vn 0.1925 0.8444 0.4999
vn 0.1925 0.8444 0.4999
vn -0.0656 0.8967 0.4377
vn -0.0656 0.8967 0.4377
vn -0.0656 0.8967 0.4377
vn -0.0028 0.7722 0.6354
vn -0.0028 0.7722 0.6354
vn -0.0028 0.7722 0.6354
vn 0.7179 0.4211 0.5543
vn 0.7179 0.4211 0.5543
vn 0.7179 0.4211 0.5543
vn 0.6322 0.7488 0.1991
vn 0.6322 0.7488 0.1991
vn 0.6322 0.7488 0.1991
vn 0.6832 0.6987 0.2122
vn 0.6832 0.6987 0.2122
vn 0.6832 0.6987 0.2122
vn -0.4876 0.7293 0.4800
vn -0.4876 0.7293 0.4800
vn -0.4876 0.7293 0.4800
vn -0.5390 0.7270 0.4255
vn -0.5390 0.7270 0.4255
vn -0.5390 0.7270 0.4255
vn 0.6941 0.7168 0.0671
vn 0.6941 0.7168 0.0671
vn 0.6941 0.7168 0.0671
vn -0.3726 0.5704 0.7320
vn -0.3726 0.5704 0.7320
vn -0.3726 0.5704 0.7320
vn 0.8487 0.4609 -0.2595
vn 0.8487 0.4609 -0.2595
vn 0.8487 0.4609 -0.2595
vn 0.8460 0.4636 -0.2636
vn 0.8460 0.4636 -0.2636
vn 0.8460 0.4636 -0.2636
vn 0.7679 0.5233 -0.3694
vn 0.7679 0.5233 -0.3694
vn 0.7679 0.5233 -0.3694
vn 0 0 0
vn 0.5273 0.7953 0.2992
vn 0.5273 0.7953 0.2992
vn 0.5273 0.7953 0.2992
vn 0.0904 0.7263 0.6814
vn 0.0904 0.7263 0.6814
vn 0.0904 0.7263 0.6814
vn -0.0182 0.7701 0.6376
vn -0.0182 0.7701 0.6376
vn -0.0182 0.7701 0.6376
vn -0.0043 0.7988 0.6016
vn -0.0043 0.7988 0.6016
vn -0.0043 0.7988 0.6016
vn 0.0148 0.7365 0.6763
vn 0.0148 0.7365 0.6763
vn 0.0148 0.7365 0.6763
vn 0.1459 0.6558 0.7407
vn 0.1459 0.6558 0.7407
vn 0.1459 0.6558 0.7407
vn -0.3557 0.6373 0.6836
vn -0.3557 0.6373 0.6836
vn -0.3557 0.6373 0.6836
vn 0.7816 0.5810 -0.2268
vn 0.7816 0.5810 -0.2268
vn 0.7816 0.5810 -0.2268
vn 0.6299 0.6973 -0.3419
vn 0.6299 0.6973 -0.3419
vn 0.6299 0.6973 -0.3419
vn 0.6707 0.6683 -0.3217
vn 0.6707 0.6683 -0.3217
vn 0.6707 0.6683 -0.3217
vn -0.6649 -0.0035 0.7469
vn -0.6649 -0.0035 0.7469
vn -0.6649 -0.0035 0.7469
vn -0.1610 0.4327 0.8870
vn -0.1610 0.4327 0.8870
vn -0.1610 0.4327 0.8870
vn -0.0031 0.2619 0.9651
vn -0.0031 0.2619 0.9651
vn -0.0031 0.2619 0.9651
vn 0.9878 0.1400 0.0687
vn 0.9878 0.1400 0.0687
vn 0.9878 0.1400 0.0687
vn -0.3555 0.1368 0.9246
vn -0.3555 0.1368 0.9246
vn -0.3555 0.1368 0.9246
vn -0.6337 -0.0908 0.7682
vn -0.6337 -0.0908 0.7682
vn -0.6337 -0.0908 0.7682
vn 0.2245 0.6623 0.7148
vn 0.2245 0.6623 0.7148
vn 0.2245 0.6623 0.7148
vn 0.8151 0.5731 -0.0842
vn 0.8151 0.5731 -0.0842
vn 0.8151 0.5731 -0.0842
vn 0.5803 0.1253 0.8047
vn 0.5803 0.1253 0.8047
vn 0.5803 0.1253 0.8047
vn 0.6018 0.6315 0.4890
vn 0.6018 0.6315 0.4890
vn 0.6018 0.6315 0.4890
vn 0.9890 0.1393 -0.0491
vn 0.9890 0.1393 -0.0491
vn 0.9890 0.1393 -0.0491
vn 0.4719 0.5438 0.6939
vn 0.4719 0.5438 0.6939
vn 0.4719 0.5438 0.6939
vn 0.9405 0.2619 -0.2164
vn 0.9405 0.2619 -0.2164
vn 0.9405 0.2619 -0.2164
vn 0.6630 0.6949 0.2784
vn 0.6630 0.6949 0.2784
vn 0.6630 0.6949 0.2784
vn 0.8031 0.3657 0.4705
vn 0.8031 0.3657 0.4705
vn 0.8031 0.3657 0.4705
vn 0.6213 0.7432 0.2482
vn 0.6213 0.7432 0.2482
vn 0.6213 0.7432 0.2482
vn 0.4640 0.6350 0.6176
vn 0.4640 0.6350 0.6176
vn 0.4640 0.6350 0.6176
vn 0.2362 0.2186 0.9468
vn 0.2362 0.2186 0.9468
vn 0.2362 0.2186 0.9468
vn 0.1425 0.6721 0.7266
vn 0.1425 0.6721 0.7266
vn 0.1425 0.6721 0.7266
vn 0.4297 0.7468 0.5076
vn 0.4297 0.7468 0.5076
vn 0.4297 0.7468 0.5076
f 1//1 2//2 3//3
f 4//4 5//5 6//6
f 7//7 8//8 9//9
f 10//10 11//11 12//12
f 13//13 14//14 15//15
f 16//16 17//17 18//18
f 19//19 20//20 21//21
f 22//22 23//23 24//24
f 25//25 26//26 27//27
f 28//28 29//29 30//30
f 31//31 32//32 33//33
f 34//34 35//35 36//36
f 37//37 38//38 39//39
f 40//40 41//41 42//42
f 43//43 44//44 45//45
f 46//46 47//47 48//48
f 49//49 50//50 51//51
f 52//52 53//53 54//54
f 55//55 56//56 57//57
f 58//58 59//59 60//60
f 61//61 62//62 63//63
f 64//64 65//65 66//66
f 67//67 68//68 69//69
f 70//70 71//71 72//72
f 73//73 74//74 75//75
f 76//76 77//77 78//78
f 79//79 80//80 81//81
f 82//82 83//83 84//84
f 85//85 86//86 87//87
f 88//88 89//89 90//90
f 91//91 92//92 93//93
f 94//94 95//95 96//96
f 97//97 98//98 99//99
f 100//100 101//101 102//102
f 103//103 104//104 105//105
f 106//106 107//107 108//108
f 109//109 110//110 111//111
f 112//112 113//113 114//114
f 115//115 116//116 117//117
f 118//118 119//119 120//120
f 121//121 122//122 123//123
f 124//124 125//125 126//126
f 127//127 128//128 129//129
f 130//130 131//131 132//132
f 133//133 134//134 135//135
f 136//136 137//137 138//138
f 139//139 140//140 141//141
f 142//142 143//143 144//144
f 145//145 146//146 147//147
f 148//148 149//149 150//150
f 151//151 152//152 153//153
f 154//154 155//155 156//156
f 157//157 158//158 159//159
f 160//160 161//161 162//162
f 163//163 164//164 165//165
f 166//166 167//167 168//168
f 169//169 170//170 171//171
f 172//172 173//173 174//174
f 175//175 176//176 177//177
f 178//178 179//179 180//180
f 181//181 182//182 183//183
f 184//184 185//185 186//186
f 187//187 188//188 189//189
f 190//190 191//191 192//192
f 193//193 194//194 195//195
f 196//196 197//197 198//198
f 199//199 200//200 201//201
f 202//202 203//203 204//204
f 205//205 206//206 207//207
f 208//208 209//209 210//210
f 211//211 212//212 213//213
f 214//214 215//215 216//216
f 217//217 218//218 219//219
f 220//220 221//221 222//222
f 223//223 224//224 225//225
f 226//226 227//227 228//228
f 229//229 230//230 231//231
f 232//232 233//233 234//234
f 235//235 236//236 237//237
f 239//239 240//240 241//241
f 242//242 243//243 244//244
f 245//245 246//246 247//247
f 248//248 249//249 250//250
f 251//251 252//252 253//253
f 254//254 255//255 256//256
f 257//257 258//258 259//259
f 260//260 261//261 262//262
f 263//263 264//264 265//265
f 266//266 267//267 268//268
f 269//269 270//270 271//271
f 272//272 273//273 274//274
f 275//275 276//276 277//277
f 278//278 279//279 280//280
f 281//281 282//282 283//283
f 284//284 285//285 286//286
f 287//287 288//288 289//289
f 290//290 291//291 292//292
f 293//293 294//294 295//295
f 296//296 297//297 298//298
f 299//299 300//300 301//301
f 302//302 303//303 304//304
f 305//305 306//306 307//307
f 308//308 309//309 310//310
f 311//311 312//312 313//313
f 314//314 315//315 316//316
f 317//317 318//318 319//319
f 320//320 321//321 322//322
f 323//323 324//324 325//325
f 326//326 327//327 328//328
