<svg xmlns="http://www.w3.org/2000/svg" viewBox="0 0 20 25" fill="currentColor" aria-hidden="true"><path d="M7 14.6a12 12 0 0 1 2.8-.6 10 10 0 0 1 .5-8.8l.4-.7a32.9 32.9 0 0 0 .9-2.3v-1c-.1-.4-.3-.7-.7-1.1-.6-.2-1.1 0-1.6.3L4.2 5.1c-.3.2-.5.6-.6 1l-.4 3a14.6 14.6 0 0 1 3.7 5.5Zm-4-4.2-.1.3-2.8 6c-.2.7-.1 1.4.4 1.9L4.8 23a8.7 8.7 0 0 0 .8-8.7c-.7-1.8-1.9-3.2-2.6-4Z"/><path d="M5.8 23.5H6a23.8 23.8 0 0 1 7.4 1.4c1.2.4 2.3-.5 2.5-1.7a7 7 0 0 1 .8-2.7c-.8-2-1.6-3.2-2.6-4a5 5 0 0 0-2.9-1.3c-1.6-.2-3 .2-4 .5.6 2.3.4 5-1.4 7.8Z"/><path d="m17.4 19.3 2-3c0-.4 0-.7-.2-1a18 18 0 0 1-2-3.5c-.7-1.4-.7-3.5-.8-4.6 0-.4 0-.7-.3-1l-3.4-4.3v.6L12 4l-.5 1-.3.6A11 11 0 0 0 10 9.4c0 1.3 0 2.8.9 4.7h.4c1.1.2 2.3.6 3.5 1.6 1 .8 1.8 2 2.5 3.6Z"/></svg>
